<?xml version="1.0" encoding="UTF-8"?>
<svg id="Layer_2" data-name="Layer 2" xmlns="http://www.w3.org/2000/svg" xmlns:xlink="http://www.w3.org/1999/xlink" viewBox="0 0 177.53 211.21">
  <defs>
    <style>
      .cls-1, .cls-2, .cls-3, .cls-4 {
        fill: none;
      }

      .cls-1, .cls-5, .cls-6, .cls-3 {
        stroke-width: .75px;
      }

      .cls-1, .cls-5, .cls-6, .cls-3, .cls-4, .cls-7 {
        stroke: #1d1d1b;
        stroke-miterlimit: 10;
      }

      .cls-8 {
        fill: #1d1d1b;
      }

      .cls-9 {
        opacity: .3;
      }

      .cls-5, .cls-10 {
        fill: #b74149;
      }

      .cls-11 {
        fill: #c4515f;
      }

      .cls-12 {
        fill: #8e3039;
      }

      .cls-13 {
        fill: #e55361;
      }

      .cls-6 {
        fill: #ea757e;
      }

      .cls-3, .cls-4 {
        stroke-linecap: round;
      }

      .cls-14 {
        fill: #ffdee2;
      }

      .cls-15 {
        fill: #ff8980;
      }

      .cls-16 {
        clip-path: url(#clippath);
      }

      .cls-4 {
        stroke-width: .5px;
      }

      .cls-7 {
        fill: #efabab;
        stroke-width: .34px;
      }
    </style>
    <clipPath id="clippath">
      <path class="cls-2" d="M73.62,180.14c1.11,1.52,2.87,2.25,4.54,2.91,35.29,13.99,33.21-27.97,68.5-13.99,13.15,5.21,30.89-42,30.86-52.45-.22-78.93-9.04-26.56-9.26-105.49,0,2.69-5.35-4.61-14.78-8.31-7.75-3.04-18.98-4.86-31.4,1.13-12.41,5.99-24.83,11.99-37.24,17.98-7.84,3.78-21.07,6.29-23.05,17.4-.56,3.16-2.18,7.55.04,9.62,37.68,35.06,7.2,83.63,10.29,125.5.14,1.93.32,3.96,1.36,5.51.04.06.08.12.12.18Z"/>
    </clipPath>
  </defs>
  <g id="Layer_1-2" data-name="Layer 1">
    <g>
      <g class="cls-9">
        <g>
          <path class="cls-5" d="M139.89,30.37s-8.79-.56-20.54,0c-14.37.69-20.24,1.18-32.66,3.72s-30.53-7.29-47.64-5.86c-17.11,1.43-26.88,18.86-25.01,38.68,1.87,19.81,11.79,30.28,10.78,44.07-1.01,13.79-.11,24.52,6.68,31.37,12.48,12.59,36.06,7.6,49.14,6.81,13.08-.79,49.54,3.83,57.3.34,7.76-3.49,15.09-8.4,16.24-23.46,1.15-15.06-6.61-40.58-6.18-46.13.43-5.55,13.01-51.59-8.12-49.53Z"/>
          <g>
            <path class="cls-13" d="M141.81,86.34c-.02.1-.7,5.91-2.89,6.96-2.19,1.05-7.68-.24-9.83-1.68-2.16-1.43-4.25-5.32-1.81-5.42,2.44-.1,8.22,2.59,8.22,2.59,0,0,6.88-6.05,6.31-2.45Z"/>
            <path class="cls-13" d="M114.37,78.46s-13.05-.34-16.47-5.07c-3.42-4.73-1.49-13.77,4.16-14.25,5.65-.48-.44,7.95-.44,7.95,0,0,2.42.5,2.67,2,.25,1.5.47,2.94.47,2.94,0,0,17.47,5.01,9.6,6.44Z"/>
            <path class="cls-13" d="M112.62,89.15s-8.69,2.67-14.78,0c-6.09-2.67-7.89-6.17-7.46-9.32.44-3.15,9.13,4.18,9.13,4.18,0,0,18.99,2.88,13.1,5.14Z"/>
            <path class="cls-13" d="M108.34,104.16s-3.67-.21-6.03-2.74c-2.36-2.54-3.67-3.29-2.67-4.52.99-1.23,14.54-4.75,15.72-2.62,1.18,2.14-6.34,6.04-6.34,6.04,0,0,1.49,4.04-.68,3.84Z"/>
            <path class="cls-13" d="M95.73,96.42s-2.67.95-5.1-.42c-2.42-1.37-5.34-5.21-4.23-6.1,1.12-.89,5.65,3.95,5.65,3.95,0,0,6.52,1.89,3.67,2.57Z"/>
            <path class="cls-13" d="M67.58,85.18s-9.58,2-20.69.44c-11.12-1.56-16.59-9.42-16.22-10.66.37-1.23,6.21,7.47,16.78,8.77,10.82,1.33,26.22-.19,20.13,1.44Z"/>
            <path class="cls-13" d="M93.55,72.02s-2.92,2.47-7.39,2.33c-4.48-.14-8.33-1.9-7.96-3.66.37-1.76,5.1-1.9,5.1-1.9,0,0,4.04-4.82,6.65-3.06,2.61,1.77,4.97,4.99,3.6,6.29Z"/>
            <path class="cls-13" d="M74.94,71.81s-4.63,1.44-7.05,1.51c-2.42.07-7.95-.14-7.83-2.12.12-1.99,7.44-1.35,7.44-1.35,0,0,11.14-.57,7.44,1.97Z"/>
            <path class="cls-13" d="M57.89,72.57s-6.71,1.92-10.38,0c-3.67-1.92-8.33-11.03-4.29-12.06,4.04-1.03,6.96,8.28,6.96,8.28,0,0,10.69,2.61,7.71,3.78Z"/>
            <path class="cls-13" d="M90.76,124.44s-6.73,9.02-14.29,7.88c-7.56-1.14-13.48-12-9.2-13.95,4.29-1.95,11.62,8.19,11.62,8.19,0,0,14.23-8.09,11.87-2.12Z"/>
            <path class="cls-13" d="M127.91,112.65s.93,6.44-3.17,6.17c-4.1-.27-2.11-8.91-2.11-8.91,0,0-1.37.34-2.24-1.23-.87-1.58-.99-2.66-.99-2.66,0,0-2.42,3.28-3.6,3.14,0,0,1.62,6.1,0,7.61,0,0,1.37,8.93-1.12,8.51-2.49-.42-1.68-5.9-1.68-5.9,0,0-1.86-6.03-1.24-11.03.62-5,6.52-6.84,10.25-5.95,3.73.88,4.18,3.7,4.18,3.7,0,0,3.53,1.84,1.73,6.57Z"/>
            <path class="cls-13" d="M131.67,72.76s-5.52.42-9.15-4.03-6.46-22.63-10.82-25.28c0,0,0-1.84,2.61,0,2.61,1.84,3.92,4.7,3.92,4.7,0,0,4.21-1.59,6.32,2.42,2.11,4.01,1.09,9.54,1.09,9.54,0,0,1.23.11,1.82,2.14.58,2.03-.22,4.67-.22,4.67,0,0,12.85,4.48,4.43,5.85Z"/>
            <path class="cls-13" d="M94.42,59.12s-10.89-4.16-9.8-6.07c1.09-1.91,9.34.19,9.34.19,0,0,5.7-3.7,6.96-1.9s-5.99,7.9-6.5,7.77Z"/>
            <path class="cls-13" d="M64.86,51.22s-3.34,3.54-6.1,3.17c-2.76-.37-10.36-4.73-7.87-6.03,2.49-1.3,8.81,1.98,8.81,1.98,0,0,7.04-1.2,5.16.88Z"/>
            <path class="cls-13" d="M80.11,112.49s-.05-6.49,1.21-9.37c1.26-2.88,4.98-6.84,5.37-4.06.39,2.78-5.56,17.67-6.58,13.43Z"/>
            <path class="cls-13" d="M96.5,119.05s-2.81-2.88-3.32-8.01c-.51-5.13.73-8.89,2.25-8.41,1.53.48,4.43,4.08,5.66,4.56,1.23.48-.51,5.21-2.18,5.05,0,0-.55,9.64-2.41,6.81Z"/>
            <path class="cls-13" d="M53.46,137.47s-4.43-4.06-5.59-10.12c-1.16-6.06,0-14.53,2.18-11.94,2.18,2.6,3.41,11.08,3.41,11.08,0,0,5.37,12.01,0,10.97Z"/>
            <path class="cls-13" d="M39.87,105.32s-5.74-5.24-5.52-10.49c.22-5.25,4.94-7.33,6.68-6.05,1.74,1.28-1.02,7.21-1.02,7.21,0,0,3.7,11.12-.15,9.33Z"/>
            <path class="cls-13" d="M139.24,128.92s.73-3.25.45-6.09c-.29-2.83-2.24-6.77-2.24-6.77,0,0,2.62-6.09,2.62-10.81s-.76-7.44-1.81-6.37c-1.05,1.07-.29,8.57-.29,8.57,0,0-5.95,6.77-4.47,11.7,1.48,4.93,2.95,6.13,2.95,6.13,0,0-1.57,9.88.62,10.77,2.19.89,2.72-2.62,2.17-7.14Z"/>
            <path class="cls-13" d="M81.32,89.44s-3.83.47-6.35-1.03c-2.52-1.5-5.21-3.87-3.91-4.88,1.3-1.01,5.42,2.09,5.42,2.09,0,0,6.49-2.8,6.93-.72.44,2.07-.22,4.14-2.09,4.55Z"/>
            <path class="cls-13" d="M66.21,96.42s-8.14,4.49-12.41,4.01,6.26-4.82,6.26-4.82c0,0,6.42-5.91,7.24-3.86.82,2.05.98,3.01-1.09,4.67Z"/>
          </g>
          <g>
            <path class="cls-12" d="M87.58,59.35c-1.84.29-5.04,1.11-6.22,3.35-.13.24-.2-.2-.38-.4-2.1-2.44-7.16-3.82-9.64-3.64-2.25.17-4.22,1.21-4.94,1.77-.18.14-.32.33-.47.15-.59-.65-2.15-2-4.4-1.17-2.92,1.07-4.76,4.82-8.45,2.36-3.37-2.25-2.94-6.19-6.88-6.86-.45-.08-.57-.73-.17-.97.96-.58,2.49-1.17,4.43-.74,3.4.75,6.12,3.43,10.01,2.68,3.01-.58,4.62-1.96,5.2-2.55.15-.15.37-.18.55-.06.97.63,4.2,2.45,9.02,2.18,4.47-.25,6.49-1.12,7.18-1.52.19-.11.41-.07.55.1.62.71,2.35,2.58,4.81,4.37.36.27.24.88-.19.95Z"/>
            <path class="cls-12" d="M115.81,60.11c-3.29-3.16-6.71-4.69-10.56-4.23-.15.02-.27-.14-.21-.29.4-1.02,1.4-4.14.23-7.2-1.12-2.94-3.37-4.9-4.27-5.6-.14-.11-.1-.36.08-.39,1.45-.29,5.9-.89,8.33,1.93,2.68,3.1,5.02,9.16,6.81,16.14.06.24-.25-.2-.41-.36Z"/>
            <path class="cls-12" d="M64.22,105.28c-1.2-.59-4.79-2.27-8.09-2.89-.39-.07-.41-.69-.02-.79,2.14-.59,5.48-1.53,7.64-2.27,2.64-.9,5.43-2.31,6.53-2.89.11-.06.21.09.13.19-1.21,1.52-5.11,6.51-5.69,8.42-.07.23-.29.33-.49.23Z"/>
            <path class="cls-12" d="M124.47,139.06c.1-.55-1.29-.56-1.66-.93-.77-.77-2.12-1.52-2.38-4.68-.19-2.27.18-5.53.36-6.8.08-.56,0-1.13-.26-1.63-.6-1.19-1.69-3.63-2-6.29-.18-1.56-.12-3.23.01-4.64.04-.44-.53-.57-.66-.15-.61,2.01-1.18,4.49-.89,6.12.55,3.12,1.65,7.03,1.54,8.78-.12,1.74-1.25,7.4,0,9.75,1.1,2.06,5.56,2.64,5.94.49Z"/>
            <path class="cls-12" d="M127.33,82.37l-6.64,2.57-8.21-4.28h7.98s5.98.89,6.87,1.72Z"/>
            <path class="cls-12" d="M143.89,85.05s-2.35-5.14-5.57-6c-3.22-.86-5.92,1.1-5.92,1.1,0,0,0-2.04-1.81-2.79-1.81-.75-4.59-.37-4.59-.37v-3.19s4.52,1.79,6.81,1.71c2.29-.08,7.35-1.31,7.35-1.31,0,0-.34,1.23.38,2.07.72.83,3.01,5.03,3.01,5.03l.33,3.76Z"/>
            <path class="cls-12" d="M129.28,94.08s-4.38-.94-6.33-.23c-1.95.72-2.92,1.85-2.92,1.85,0,0-.33-1.96-2.01-2.64-1.68-.68-4.62-1.09-4.62-1.09,0,0,5.89-2.03,5.97-2.13.09-.1,1.97-.75,1.97-.75,0,0,2.12,1.56,2.23,1.71.1.15,4.62,2.48,4.62,2.48l1.1.8Z"/>
            <path class="cls-12" d="M130.35,116.16s.58-7.34-.74-10.73c-1.32-3.39-4.17-4.67-4.17-4.67,0,0,3.46.14,5.57,2.6,2.11,2.45,3.04,4.79,2.8,6.15-.24,1.36-1.85,3.81-1.85,3.81,0,0,.34,2.42.1,3.47-.24,1.06-2.09,3.74-2.09,3.74l.38-4.38Z"/>
            <path class="cls-12" d="M108.88,125.64l1.17-3.09s-.93-3.59-1.03-7.79c-.1-4.19,1.03-8.49,1.03-8.49,0,0-3.11,0-5.38-1.12-2.27-1.12-3.15-1.86-3.15-1.86,0,0,2.88,2.87,3.53,4.68.65,1.81,0,5.27,0,5.27,0,0,1.81,4.58,1.92,6.85.1,2.27-1.2,8.27-2.26,9.1-1.06.83-4.59-.34-4.59-.34,0,0-1.75,1.28-2.43,1.36-.68.08-3.39-.57-3.39-.57l-.48-2.45.31-4.11.63-1.96s-2.71-4.18-3.3-7.86c-.58-3.69-.43-7.56-.43-7.56,0,0-3.4,4.67-2.34,9.24s4.11,8.15,4.11,8.15l-1.45,3.94-5.64,5.14-2.77,1.64s3.36.39,4.49.67c1.13.27,2.6.74,2.6.74,0,0,4.87-1.5,7.67-1.17s5.59,1.37,5.59,1.37c0,0,.77.58,1.42.57s3.6-.15,3.6-.15l.79-.62s-.68-4.35-.68-5.79.48-3.78.48-3.78Z"/>
            <path class="cls-12" d="M123.01,137.09s3.7-2.69,4.25-3.11,3.31-3.95,3.31-3.95c0,0,1.07,3.27,1.72,4.17s5.17,4.15,6.57,3.78c1.4-.38,2.92-1.44,2.92-1.44,0,0,.23,1.89-.9,2.79-1.13.91-2.25,1.33-2.25,1.33l-2.54-.22s-2.44-3.45-6.17-4.01c-3.73-.57-4.16-.66-4.5-.46-.33.2-2.43,1.12-2.43,1.12Z"/>
            <path class="cls-12" d="M77.51,134.46s-3.24-.1-5.19-1.43c-1.95-1.33-3.3-2.61-3.3-2.61l-.34,1.69-1.31,3.09s1.63-.23,3.13.07c1.51.3,2.87.77,2.87.77,0,0,1.39.25,1.66.17s2.48-1.75,2.48-1.75Z"/>
            <path class="cls-12" d="M59.64,119.68s-4.44-9.94-9.13-12.13c-4.69-2.19-8.11-.79-8.11-.79l-3.6,1.63-2.4,2-2.35,3.27s-1.54-2.28-1.34-3.38c.21-1.1.91-3.17.91-3.17v-3.29l-.64-1.95s2.09,2.6,2.6,3.12c.51.53,4.96,1.74,6.47,1.02,1.51-.72,3.07-3.51,3.07-3.51,0,0,3.02,2.3,4.7,2.6,1.68.3,4.18.22,4.18.22l3.53,5.82,2.11,8.54Z"/>
            <path class="cls-12" d="M51.62,138.24s-3.1-2.41-4.67-7.13c-1.57-4.72-1.82-10.46-1.82-10.46,0,0-3.01,5.96-2.66,9.06.34,3.1,1.1,5.48,1.1,5.48l7.77,4.78.29-1.75Z"/>
            <path class="cls-12" d="M115.46,37.47s-5.8-1.19-9.92,0c-4.12,1.19-8.39,5.42-8.39,5.42l.69-3.45-.03-3.87s5.44-1.46,9.52-.89c4.08.57,8.13,2.79,8.13,2.79Z"/>
            <path class="cls-12" d="M49.13,39.92s-3,.78-3.57,2.33c-.56,1.55-.67,2.95-.67,2.95,0,0-3.2-1.5-6,0-2.8,1.5-4.02,6.04-4.02,6.04,0,0-3.9,2.55-4.18,4.88-.28,2.33.2,4.66.2,4.66,0,0-1.14,2.23-1.28,3.57-.14,1.35.61,5.41.61,5.41,0,0-4.04-1.06-4.46-3.7-.42-2.64.28-9.88.28-9.88l2.44-6.21s4.79-7.04,5.96-7.56c1.17-.52,5.44-3.93,7.27-3.93s7.41,1.45,7.41,1.45Z"/>
            <path class="cls-12" d="M89.45,84.48s-2.31-4.41-4.16-4.59c-1.84-.19-3.88.34-3.88.34,0,0-.24-2.32-1.05-2.85-.81-.53-5.73-1.32-5.73-1.32l.14-1.48,2.6-1.25s3.3,1.82,4.21,2.08c.91.25,2.27.6,3.33.75,1.05.16,1.82.32,2.01.32s2.5-.37,2.5-.37c0,0-1,2.43-.9,4.26.1,1.82.93,4.12.93,4.12Z"/>
            <path class="cls-12" d="M78.93,103.05s.61-5.22.12-7.15c-.49-1.93-3.64-5.33-3.64-5.33,0,0,1.79,1.11,3.09,1.33,1.3.21,4.77-.33,4.77-.33l.79,2.13.66.89s-4.67,5.14-5.79,8.47Z"/>
            <path class="cls-12" d="M37.61,85.35l-2.25,1.51-3.53,3.76s.68-3.58.81-3.89-.28-4.09-.31-4.24c-.02-.16-.5-1.55-.5-1.55,0,0,2.51,2.15,2.89,2.31.37.16,2.23,1.13,2.49,1.26s1.7,1.07,1.7,1.07l-1.34-.4.04.17Z"/>
            <path class="cls-12" d="M62.89,88.41l-11.2,3.01-7.8-4.47s7.54,1.83,9.72,1.79c2.18-.04,7.47-.3,7.69-.39s1.59.05,1.59.05Z"/>
          </g>
          <g>
            <path class="cls-8" d="M131.01,132.03c-.93-3.43-1.58-6.99-1.65-10.56.06-6.22,3.07-18.33-4.8-20.63-4.1-1.4-9.44-.97-12.38,2.49-.65.78-1.18,1.67-1.46,2.65-1.48,5.37-1.51,11.35-.24,16.77-1.22,3.38-1.76,7.12-1.42,10.72.1,1.21.36,2.39.66,3.57-.81-2.3-1.25-4.74-1.25-7.19-.04-2.48.38-4.92,1.26-7.26,0,0-.02.25-.02.25-.69-2.83-.92-5.69-.89-8.56.17-8.42,1.85-14.91,11.69-14.91,4.56.08,9.09,2.24,9.73,7.19,1.1,5.66-.24,11.41-.16,17.04.08,2.82.38,5.65.91,8.44h0Z"/>
            <path class="cls-8" d="M140.38,74.14c-5.82,1.87-12.96,2.04-17.9-2.07-2.78-2.57-4.27-6.21-5.54-9.68-1.69-4.64-2.81-9.49-4.96-13.85-1.78-4.79-7.15-6.4-12-5.84,3.54-.78,7.99-.59,10.61,2.33,3.89,4.94,4.87,11.43,7.05,17.11,1.46,3.91,3.11,8.12,6.77,10.42,4.75,2.76,10.67,2.44,15.96,1.59h0Z"/>
            <path class="cls-8" d="M133.03,85.65c-4.83-4.86-12.09-4.08-18.37-4.48-4.88-.31-9.98-.68-14.43-2.95-7.61-3.7-7.69-17.08-.55-21.34,5.85-3.43,14.17-.85,17.45,4.92-3.65-5.18-11.48-7.37-17.06-4.27-6.63,3.94-6.58,16.61.52,20.03,4.33,2.2,9.32,2.56,14.12,2.87,6.32.28,13.92-.24,18.33,5.23h0Z"/>
            <path class="cls-8" d="M120.46,69.08c-4.96-2.04-10.38-2.72-15.69-1.91,5.11-1.86,11.16-1.1,15.69,1.91h0Z"/>
            <path class="cls-8" d="M140.96,75.92c2.9,2.07,5.09,5.41,5.3,9.15.08,3.65-1.41,7.68-4.8,9.46-3.34,1.72-7.31,1.38-10.76.22-3.44-1.22-6.52-3.18-9.34-5.49,0,0,.4.06.4.06-6.86,2.77-14.44,4.3-21.79,2.86-3.63-.82-7.33-2.36-9.64-5.42-2.09-3.01-2.78-7.39-.92-10.64-1.6,3.24-.61,7.44,1.53,10.18,2.16,2.9,5.75,4.36,9.19,5.14,7.13,1.42,14.66-.11,21.32-2.81,0,0,.22-.09.22-.09,0,0,.18.15.18.15,5.18,4.21,12.61,8.32,19.25,5.18,3.15-1.63,4.43-5.4,4.42-8.78.05-3.49-1.85-6.86-4.57-9.17h0Z"/>
            <path class="cls-3" d="M95.9,61.83s-6.77-.29-13.12-7.76c0,0-3.41,1.89-8.41,1.66-5.01-.22-7.79-2.33-7.79-2.33,0,0-3.35,3.23-7.42,2.73-4.06-.49-8.19-5.39-14.76-1.25-6.57,4.14-4.63,14.56,1.75,18.7,6.38,4.14,14.08.55,14.08.55,0,0,11.01,2.9,16.83-1.03,0,0,9.2,7.12,18.93.18"/>
            <path class="cls-8" d="M88.52,59.11c-2.63.57-5.66,1.71-6.67,4.41,0,0-.4-.42-.4-.42-2.83-2.99-7.1-4.53-11.18-3.78-1.17.2-2.73.67-3.32,1.69,0,0-.29.57-.29.57-1.42-2.26-3.75-2.51-5.88-1.01-1.47.9-3.19,2.22-4.61,3.22-1.6.87-3.36,2.25-5.27,1.9,1.52.08,2.77-1.03,3.95-1.85.99-.79,2.61-1.88,3.64-2.64,1.85-1.28,4.11-3.06,6.5-2.04.77.33,1.41.82,1.93,1.51l-.66.08c.85-1.49,2.41-1.85,3.9-2.16,4.34-.79,8.85.82,11.87,4.02,0,0-.63.1-.63.1,1.18-2.71,4.46-3.47,7.13-3.59h0Z"/>
            <path class="cls-1" d="M110.27,106.07s-9.03.56-12.07-7.14c0,0-4.74,1.59-9.69-1.72-4.46-2.99-5.02-5.68-5.02-5.68,0,0-8.55,1.32-13.79-4.26,0,0-28.92,8.06-45.88-12.42"/>
            <g>
              <path class="cls-10" d="M124.18,138.67s-3.86.04-3.43-6.14c.43-6.18.32-6.94.32-6.94,0,0-3.7-6.48-1.74-14.11"/>
              <path class="cls-8" d="M124.18,138.67c-5.74-.61-3.06-9.19-3.48-13.02-1.45-2.62-2.46-7.1-2.08-10.59.1-1.22.37-2.42.72-3.57-.86,4.69-.14,9.7,2.06,13.92.18,2.3-.26,5.3-.36,7.59-.21,2.29.45,5.32,3.15,5.67h0Z"/>
            </g>
            <path class="cls-8" d="M85.12,94.28c-5.22,4.62-7.4,11.74-7.39,18.53,0,.99.07,1.97.06,2.97-.17-.98-.32-1.96-.43-2.95-.6-6.88,1.8-14.59,7.76-18.55h0Z"/>
            <path class="cls-1" d="M92.88,99.06s-2.51,6.79-1.51,12.91c.99,6.12,3.45,8.95,3.45,8.95,0,0-2.54,7.86,1.68,14.89"/>
            <path class="cls-8" d="M94.82,120.93c-4.02,12.94-20.82,20.39-28.53,6.25-2.87-5.62-3.31-12.21-2.49-18.38.88-6.3,4.98-11.74,10.25-15.1-4.8,3.82-8.54,9.11-9.51,15.23-.8,5.95-.36,12.5,2.41,17.91,7.84,13.84,22.75,5.75,27.87-5.89h0Z"/>
            <path class="cls-8" d="M69.02,130.42c-.14,3.71-2.2,7.29-5.48,9.11-3.22,1.77-7.44,2.51-10.69.41-5.85-4.03-7.94-12.97-7.73-19.71,1.18,6.71,2.17,14.84,8.13,19.07,2.96,1.95,6.91,1.21,9.91-.43,3.05-1.8,5.04-5.03,5.86-8.46h0Z"/>
            <path class="cls-8" d="M60.64,122.28c-2.48-5.84-6.06-12.62-12.25-15.05-4.67-1.56-10.11.78-13.11,4.48-4.06,5.5-2.7,13-.6,19.05,1.63,5.4,5.83,10.74,11.81,11.08,2.02.25,5.98-1.26,4.6-3.84,1.27,1.61-.56,3.4-2.04,4.03-1.62.77-3.5.64-5.17.11-6.98-2.16-9.89-9.51-11.32-16.03-1.06-4.92-1.09-10.65,2.12-14.85,3.2-3.96,8.97-6.4,13.95-4.73,6.58,2.48,9.98,9.48,12,15.76h0Z"/>
            <path class="cls-1" d="M38.8,108.39s-6.02-3.84-6.96-12.1c-.94-8.26,6.15-11.1,6.15-11.1"/>
            <path class="cls-8" d="M64.89,105.77c-4.93-3.07-10.92-3.48-16.58-3.86,5.64-.67,12.19-.11,16.58,3.86h0Z"/>
          </g>
          <path class="cls-8" d="M127.33,40.48c2.32.27,4.25,1.91,5.75,3.61,4.54,5.35,5.52,12.83,4.93,19.61-.06-2.28-.26-4.55-.59-6.79-.92-6.22-3.61-14.17-10.1-16.42h0Z"/>
        </g>
        <g>
          <g>
            <g>
              <path class="cls-6" d="M2.27,29.9c.26-.56.34-1.2.27-1.82-.27-2.29-.56-7.95,2.52-10.92,2.78-2.67,5.61-3.06,7.03-3.05.58,0,1.14-.17,1.62-.53.53-.4,1.36-.88,2.37-1.05.5-.09.98-.28,1.38-.63,1.28-1.09,4.44-3.3,8.08-2.42,2.86.69,4.37,2.16,5.13,3.23.49.69,1.18,1.16,1.96,1.25,1.66.18,4.61,1.08,6.97,4.97.56.91,1.5,1.45,2.49,1.39,2.69-.16,8.08.03,11.76,3.57.73.7,1.75.91,2.68.6,1.98-.67,5.39-1.62,8.02-1.24,2.37.35,4.4,1.48,5.64,2.33.8.54,1.77.65,2.63.24,1.57-.76,4.47-1.79,8.39-1.65,3.52.13,5.63.72,6.78,1.2.79.32,1.65.24,2.39-.22,1.89-1.18,5.91-3.06,11.29-2.23.73.11,1.48-.11,2.07-.6,1.61-1.31,5.2-3.72,9.59-3.32.8.07,1.59-.2,2.19-.79,1.27-1.24,3.79-3.21,7.1-3.38.91-.05,1.76-.55,2.26-1.4,1.35-2.28,4.65-6.44,10.76-6.34.79.01,1.56-.31,2.11-.94,1.1-1.26,3.36-3.23,6.66-3.31,2.8-.07,4.33.63,5.13,1.23.58.44,1.29.61,1.99.51,1.86-.26,5.44.14,7.7,6.16.18.48.47.9.84,1.21,1.01.85,3.1,3.23,3.64,8.63.4,4-.41,6.18-1.22,7.33-.61.87-.81,2-.48,3.05.8,2.55,1.47,7.57-2.13,14.16-.45.83-.54,1.84-.24,2.75.74,2.23,1.68,7.17-.71,14.52-.28.85-.2,1.78.19,2.57,1.27,2.58,3.73,9.09,1.58,17.44-.24.93-.11,1.94.4,2.72.97,1.46,2.42.16,2.68,6.93.05,1.22.72,2.31,1.74,2.78,1.99.92,5.17,3.1,6.34,7.97,1.14,4.75-.07,7.67-1.06,9.13-.56.83-.68,1.94-.35,2.92.86,2.56,2.18,7.38,1.31,10.91-.71,2.87-2.02,4.62-3.01,5.6-.74.72-1.09,1.8-.93,2.87.31,2.08.46,5.6-1.21,8.78-1.79,3.4-5.06,4.5-6.9,4.86-.83.16-1.55.72-1.96,1.53-1.35,2.65-5.03,8.18-11.9,7.46-.92-.1-1.83.35-2.41,1.15-1.4,1.94-4.44,5.25-9,5.57-4.22.3-7.14-.81-8.66-1.61-.74-.39-1.58-.42-2.34-.07-1.2.55-3.45,5.65-7.04,4.68-3.44-.94-5.5-2.58-6.62-3.78-.68-.73-1.63-1.03-2.55-.8-.67.17-1.59.25-2.76.03-1.78-.33-3.42,1.26-3.34,3.25.08,2.15-.32,4.7-1.93,7.14-.56.85-.71,1.96-.37,2.94.64,1.84,1.39,5.17.66,9.49-1.13,6.74-5.67,9.59-6.7,16.11-.49,3.07-.67,5.28-.74,6.75-.07,1.54-1.12,2.78-2.49,2.98-1.56.23-3.72.31-6.04-.3-1.33-.35-2.26-1.7-2.2-3.21.11-2.36.07-6.07-.9-9.07-1.55-4.8-6.08-8.57-7.42-19.88-1.11-9.33.73-16.94,1.41-19.33.15-.51.17-1.05.07-1.58-.54-2.98-1.88-13.5,4.8-18.96,6.59-5.38,14.41-1.88,16.74-.62.45.24.94.35,1.44.31,2.03-.14,7.71-.04,11.64,4.91.66.83,1.68,1.2,2.65.98,2.26-.51,6.47-5.54,10.12-3.11.85.57,1.91.59,2.79.08,2.01-1.16,5.9-2.83,10.48-1.84,1.04.23,2.12-.19,2.78-1.12,1.34-1.88,4.03-4.79,8.19-5.37,1.19-.16,2.12-1.18,2.38-2.47.35-1.76,1.21-4.18,3.31-6.2.71-.68,1.06-1.69.97-2.72-.12-1.24-.17-3.03.12-4.96.17-1.16-.21-2.34-1.05-3.05-1.54-1.3-3.82-3.88-4.56-8.24-.11-.63-.39-1.21-.81-1.65-1.48-1.55-4.84-5.78-4.28-11.69.43-4.52.94-2.45,1.28-3.73.2-.76.15-1.56-.17-2.27-.98-2.16-2.8-7.17-1.35-12.21.24-.83.18-1.72-.19-2.48-1.03-2.14-2.77-7.04-.85-13.01.21-.66.21-1.37.01-2.03-.69-2.3-1.93-8.08,1.28-12.95.54-.82.64-1.89.33-2.84-.27-.81-.57-1.86-.8-3.03-.36-1.85-2.14-2.96-3.74-2.28-1.11.47-2.42.77-3.79.6-.84-.11-1.67.16-2.3.79-2.01,2.03-6.78,6.07-12.28,5.09-.69-.12-1.39.02-1.98.42-2.74,1.87-10.94,6.81-17.53,3.91-.73-.32-1.54-.33-2.26.02-2.55,1.25-8.89,3.83-13.98,1.36-.58-.28-1.23-.34-1.84-.16-2.31.68-8.28,1.97-13.37-.86-.54-.3-1.16-.38-1.75-.25-2.29.5-8.31,1.35-13.6-1.81-.78-.46-1.69-.55-2.5-.17-1.77.82-5.11,2.06-8.36,1.51-3.03-.52-5.31-2.45-6.55-3.77-.65-.69-1.57-1-2.46-.8-.38.08-.82.16-1.32.2-1.52.12-2.71,1.52-2.67,3.2.03,1.57.24,3.64.83,6.14.18.75.11,1.54-.2,2.23-.77,1.67-1.79,5.74.92,13.22.27.73.27,1.55.02,2.29-.96,2.74-3.03,10.16-.95,18.43.2.79.09,1.64-.27,2.36-.88,1.76-2.41,5.43-2.48,9.73-.07,4.03,1.69,6.69,2.87,8.02.61.69.92,1.63.81,2.59-.23,2.14-.34,5.91,1.37,7.89,2.47,2.86,7.53,2.97,8.66,11.08,1.01,7.24-6.11,10.75-9.93,10.77-.75,0-1.47.29-1.99.88-1.42,1.58-4.81,4.3-10.66,2.97-7.48-1.7-10.68-10.71-10.76-18.11-.01-.96-.39-1.86-1.07-2.46-1.48-1.28-3.94-4.19-4.23-9.59-.3-5.43.47-8.85.95-10.42.21-.69.19-1.43-.04-2.11-.82-2.42-2.42-8.43-.7-14.62.18-.64.14-1.32-.06-1.95-.83-2.55-2.67-9.47-.17-14.9.31-.68.4-1.46.24-2.19-.64-2.82-1.99-10.06-.31-14.78.27-.75.29-1.57.02-2.32-1.14-3.08-3.68-11.64-.03-19.33Z"/>
              <path class="cls-7" d="M27.43,136.96c-.15-.19-.29-.39-.44-.58-3.07-3.84-10.07-8.99-10.42-16.31,0-.04-.01-.07-.03-.11l-2.29-4.63s-.03-.09-.03-.15c.05-.64.33-5.2-1.5-9.34-.02-.06-.03-.11-.02-.17.2-.85,1.7-7.77.02-12.89-.02-.07-.02-.14.01-.2.26-.56,1.53-3.48,1.17-7.34-.35-3.72-1-5.43-1.17-5.83-.03-.06-.03-.13,0-.19.24-.78,1.75-5.92,1.75-9.31,0-3.2-.67-5.03-.85-5.46-.03-.06-.03-.13,0-.2.18-.52.96-2.98.53-5.36-.42-2.32-1.56-4.31-1.87-4.81-.05-.08-.05-.17-.02-.25.29-.71,1.63-4.24,1.56-9.19-.07-4.51-.48-7.38-.68-8.63-.03-.2,1.41.81,1.58.88,1.5.61,2.26.52,2.23.65-.39,1.7-2.32,11.26.95,17.85.03.06.04.13.02.19-.21.81-1.53,6.53.94,13.19.03.09.02.19-.04.27-.55.69-3.25,4.55-1.46,12.9,0,.05,0,.09,0,.14-.19.65-1.67,6.1.54,11.12.03.07.03.14,0,.21-.3.82-2.29,6.37-2.06,11.01.22,4.61,1.33,7.33,1.51,7.74.02.04.02.08.02.12-.03.54-.14,4.27,1.99,7.49.03.04.04.08.04.13.04.55.41,4.27,3.47,7.91,3.32,3.94,10.47,12.57,9.23,14.28-.94,1.3-2.64-2.5-4.68-5.13Z"/>
              <path class="cls-7" d="M13.03,14.18s4.46.71,5.92,4.91c.12.34.36.61.67.72,1.39.48,5.3,2.17,6.84,6.34.18.49.62.8,1.1.76,1.36-.11,4.28-.03,7.81,1.9,3.36,1.83,4.93,3.67,5.59,4.64.27.4.74.57,1.18.44,1.85-.56,6.75-1.51,11.23,2.24.28.23.63.32.96.23,1.48-.42,5.79-1.5,8.48-.57,2.3.79,3.81,1.74,4.52,2.24.3.21.66.26.99.12,1.34-.54,5.01-1.88,8.69-1.88s6.28,1.23,7.38,1.81c.33.17.71.16,1.03-.04,1.1-.7,3.79-2.27,6-2.34,2.25-.06,4.58.53,5.48.78.25.07.5.04.74-.08,1.68-.88,8.91-4.46,13.63-3.98.23.02.45-.02.65-.14,1.38-.86,7.3-4.33,11.88-3.75.43.05.84-.19,1.06-.59,1.03-1.87,4.26-6.71,10.02-6.31.36.03.72-.13.95-.44,1.11-1.47,4.72-5.78,9.66-7.01,2.99-.74,5.31-.87,6.88-.82.73.03,1.27-.73,1.11-1.52,0-.02,0-.04-.01-.06-.13-.72-.82-1.13-1.44-.89-.98.38-2.36.78-4.05.9-3.44.24-5.93-.08-8.19,1.38-2.27,1.46-2.78,4.46-5.12,5.27-1.81.62-4.39,1.11-5.48,1.29-.32.06-.6.26-.77.57-.69,1.24-2.76,4.52-5.82,5.43-3.39,1.01-7.37,1.83-8.19,2-.1.02-.19.05-.29.11-.93.53-6.55,3.6-10.69,3.9-3.71.27-5.9.31-6.58.32-.14,0-.28.03-.41.09-.96.46-5.5,2.37-10.33.51-.29-.11-.6-.1-.88.05-1.07.59-4.21,2-9.16,1.61-4.4-.34-6.38-1.13-7.17-1.56-.28-.15-.6-.18-.89-.06-.76.32-2.61.83-6.29.49-3.77-.35-5.54-1.05-6.22-1.4-.24-.12-.5-.16-.75-.09-.78.22-2.79.54-6.2-.37-3.4-.91-4.91-2.92-5.45-3.86-.19-.33-.51-.53-.86-.56-1.8-.15-7.15-.74-10.06-2.65-2.96-1.95-5.85-5.11-6.71-6.08-.16-.19-.37-.31-.6-.35-.75-.14-2.55-.57-3.46-1.65-1.17-1.38-3.3-3.59-4.83-3.7-1.53-.11-3.53,1.71-3.53,1.71Z"/>
              <path class="cls-7" d="M151.22,25.04c.55,1.22,1.95,4.73,1.32,7.43-.58,2.45-2.52,4.82-3.48,5.88-.31.34-.38.87-.16,1.3.67,1.29,1.93,4.09,1.7,6.37-.23,2.3-1.3,4.86-1.81,6-.16.35-.14.78.07,1.1.62.97,1.85,3.28,1.75,6.29-.11,3.21-1.06,6.9-1.45,8.26-.09.33-.04.69.15.97.58.88,1.81,3.1,1.94,6.37.14,3.43-1.31,7.28-1.91,8.71-.15.35-.12.77.09,1.09.62.96,1.91,3.08,2.42,4.95.54,1.94.5.15.46,1.3-.01.33.11.64.34.86.71.68,2.26,2.32,2.92,4.07.61,1.62.79,3.48.84,4.43.02.4.24.75.57.91,1.39.71,5.1,2.71,6.82,4.7.11.13.3,0,.24-.17-.28-.87-.8-2.27-1.56-3.61-1.18-2.1-5.09-4.06-5.26-8.71,0-.21-.06-.41-.17-.58-.75-1.2-3.89-1.88-3.81-6.27.07-3.93.57-6.37.77-7.22.05-.23.04-.46-.03-.67-.33-.94-1.22-3.82-1.43-7.71-.21-3.83.64-6.92.98-8.01.08-.26.08-.55-.02-.8-.41-1-1.44-3.92-1.65-8.43-.2-4.46.51-7.01.82-7.89.08-.23.09-.48.03-.71-.32-1.14-1.18-4.67-.32-7.03,1.04-2.85,2.32-4.8,2.41-7.29.08-2.2-.91-6.41-1.73-7.64-.05-.07-.18.31-.74.81-.57.5-1.13.8-1.07.94Z"/>
              <path class="cls-7" d="M119.59,149.18c1.79.04,5.02-.04,6.62-.99.16-.1.36-.09.5.05.8.81,3.43,3.11,6.48,2.05,3.06-1.06,4.48-3.76,4.86-4.62.07-.16.22-.26.39-.25,1.25.08,6.41.3,8.12-1.58,1.95-2.15,2.76-7.17,3.8-7.64.85-.39,3.11-.36,3.89-.33.16,0,.31-.09.38-.26.34-.77,1.38-3.01,2.52-4.43.33-.41.92.03.7.52-.76,1.65-1.83,4.14-2.19,5.9-.05.26-.3.41-.53.33-.81-.29-2.56-.69-3.59.74-1.37,1.91-.79,5.89-4.6,7.73-3.81,1.83-5.75.16-7.77,1.83-2.01,1.67-3.95,4.62-7.84,4.3-3.09-.25-4.54-1.87-5-2.52-.11-.16-.29-.22-.46-.15-.94.36-3.71,1.53-6.5.19-.39-.19-.18-.87.24-.86Z"/>
              <g>
                <path class="cls-14" d="M15.06,57.09c-.36-.91-.92-2.26-1.47-3.27-.02-.04-.03-.09-.01-.14.11-.35.59-2,.95-4.03.04-.2.29-.18.31.02l.53,7.33c.01.2-.23.26-.3.08Z"/>
                <path class="cls-14" d="M16.52,63.84s.23,2.6,1.07,4.33c.1.22.12.47.02.69-.29.68-.92,2.28-1.32,4.05-.53,2.35-.35,4.32-.35,4.32,0,0-.28-2.84-.53-3.19-.25-.36-.51-.23-.51-.23,0,0,.83-2.76.65-4.73-.15-1.55-.74-3.6-.98-4.41-.06-.21-.04-.44.06-.63.15-.3.33-.97.37-1.83.1-1.75.05-2.66.05-2.66,0,0,.42,3.64.6,4.1.18.46.46,1.14.46,1.14l.41-.95Z"/>
                <path class="cls-14" d="M15.77,88.74s.14,2.63.89,4.11c.1.2.14.43.06.65-.27.81-.97,2.9-1.34,4.34-.47,1.82-.47,3.2-.47,3.2,0,0-.08-2.77-.29-3.23-.11-.25-.24-.46-.32-.6-.08-.12-.12-.27-.11-.42.01-.63.02-2.37-.2-3.61-.05-.29.05-.59.28-.75.3-.22.69-.56.86-1,.29-.75.65-2.68.65-2.68Z"/>
                <polygon class="cls-14" points="15.52 111.8 15.2 115.08 17.29 118.97 15.83 113.94 15.52 111.8"/>
                <path class="cls-14" d="M23.21,20.2s2.14,1.33,2.97,2.6c.83,1.27,1.22,2.54,1.22,2.54,0,0,2.21-.2,3.57.2,1.35.4,2.6.98,2.6.98l-2.79-1.99s-1.61.06-2.4-.52c-.78-.58-3-4.1-3.65-4.65-.65-.55-3.93-.23-3.93-.23l2.4,1.07Z"/>
                <path class="cls-14" d="M38.99,29.13s1.97,1.61,2.95,3.34c0,0,1.79-.68,4.24-.28,0,0-1.07-.78-1.92-1.39-.85-.62-2.01-2.85-2.01-2.85,0,0-.41,1.48-.95,1.48s-2.31-.3-2.31-.3Z"/>
                <path class="cls-14" d="M65,35.03s1.7.63,2.55,1.43c.14.14.34.17.52.1.78-.31,2.85-1.1,3.88-1.2l-1.64-.69c-.13-.06-.27-.05-.4,0-.47.23-1.67.77-2.18.72-.64-.06-2.73-.36-2.73-.36Z"/>
                <path class="cls-14" d="M85.1,36.9s2.95-1.9,4.93-1.97c1.99-.08,3.56,0,3.56,0l-.96-.76s-2.71.38-4.52,0c-1.82-.38-2.05-.42-2.05-.42,0,0-.14,1.82-.62,1.94-.48.11-3.29.11-3.29.11l2.95,1.1Z"/>
                <path class="cls-14" d="M133.12,19.83c.17-.03,2.84-.72,4.04-1.86l-2.19,2.66s-.79-.34-2.53,0-2.77,1.11-2.77,1.11c0,0,1.03-1.49,3.46-1.91Z"/>
                <path class="cls-14" d="M150.37,67.76s.91-3.88,1.01-5.73c.09-1.85-.13-3.25-.13-3.25l1.26,3.84s-.79,2.27-1.04,3.35c-.25,1.08-.03,4.99-.03,4.99,0,0-.54-2.09-1.07-3.21Z"/>
                <polygon class="cls-14" points="151.03 48.73 149.77 52.64 150.78 54.6 150.72 51.67 151.03 48.73"/>
                <path class="cls-14" d="M151.72,80.44l-1.32,3.88s1.2,1.47,1.32,1.99c.13.52.66,2.03.66,2.03v-3.67s-.57-.63-.66-1.47c-.09-.84,0-2.76,0-2.76Z"/>
                <path class="cls-14" d="M153.77,91.56s1.42,1.43,1.89,2.3c.47.87.69,2.23.69,2.23v-2.83s-1.42-1.61-1.92-2.41c-.5-.8-.98,1.62-.98,1.62l.32-.92Z"/>
              </g>
            </g>
            <path class="cls-4" d="M137.98,34.79s5.9-1.99,6.71-8.47c0,0,5.1.16,7.21-1.97,1.19-1.21,1.82-2.02,2.13-2.5.13-.2.36-.13.5.07.87,1.25,2.59,2.99,5.36,2.6"/>
            <path class="cls-3" d="M32.11,40.87s-5.77,1.32-10.31-3.67c0,0-3.22,1.05-6.36,0-2.35-.79-3.45-2.61-3.86-3.47-.13-.27-.37-.45-.65-.48-1.11-.08-3.89-.68-4.58-4.53"/>
            <path class="cls-3" d="M101.13,165.96s.46-2.74-.34-5.99c-.15-.61-.1-1.25.11-1.84.35-.95.82-2.6.82-4.65,0-4.21-2.69-6.98-2.69-6.98"/>
          </g>
          <g>
            <path class="cls-11" d="M18.36,39.49c.68.02,1.73-.01,2.59-.36.26-.11.55-.04.76.15.83.76,3.01,2.56,5.49,3.15.41.1.68.52.62.98-.09.67-.18,1.67-.11,2.71.1,1.5.61,3.75.8,4.55.05.19.03.38-.04.56-.32.8-1.22,3.25-1.22,5.49,0,1.39.29,3.34.58,4.91.07.37-.39.55-.55.21-1-2.2-2.4-5.16-2.86-5.58-.51-.47-2.75.56-4.12,1.27-.41.21-.86-.22-.73-.7l.38-1.41c.07-.25.03-.51-.1-.73-.45-.78-1.54-2.92-2.18-6.3-.61-3.23-.31-6.62-.12-8.13.06-.45.4-.77.81-.76Z"/>
            <path class="cls-11" d="M2.88,46.43c-.09-.39.36-.65.6-.34.96,1.27,2.7,3.25,4.58,3.77,1.73.49,3.03.24,3.77-.02.28-.1.52.21.42.51l-1.19,3.29c-.04.1-.03.21,0,.3l1.11,2.63c.16.37-.26.72-.54.45-1.09-1.05-2.62-2.44-3.39-2.77-.97-.41-3.65-.13-4.89.03-.27.04-.47-.28-.35-.55.4-.88,1.04-2.46.94-3.34-.11-.88-.74-2.6-1.06-3.98Z"/>
            <path class="cls-11" d="M3.83,63.91s1.25,2.88,3.06,3.47c1.81.59,5.62-2.76,5.62-2.76,0,0,.57.67.87,2.17,0,0-2.08.13-3.4,1.17-1.32,1.05-2.68,3.39-2.68,3.39,0,0-2.45-2.09-2.79-2.13-.34-.04-1.64,1.17-1.64,1.17,0,0,1.11-2.72,1-3.85-.11-1.13-.72-3.85-.72-3.85l.68,1.21Z"/>
            <path class="cls-11" d="M3.11,79.68s1.32,3.14,2.34,3.85c1.02.71,4.23.59,4.57.46s2-4.31,2-4.31c0,0,.6,2.62.79,4.4.19,1.78,0,3.54,0,3.54,0,0-.79-1.88-1.43-2.17-.64-.29-5.74-.63-6.23-.46-.49.17-1.77,1.71-1.77,1.71,0,0,.91-2.01.53-3.05-.38-1.05-1.21-3.47-.79-3.97Z"/>
            <path class="cls-11" d="M4.13,98.45s1.17,2.47,2,2.76c.83.29,4.15,1.55,4.6,1.3.45-.25,1.96-1.48,1.96-1.48,0,0-1.21,4.03-1.09,4.57.11.54,1.09,2.88,1.09,2.88,0,0-2.3-3.05-2.91-3.6-.6-.54-3.7-1.55-4.53-1.25-.83.29-1.59,1.8-1.59,1.8,0,0,1.13-3.5,1.02-4.4s-.57-2.58-.57-2.58Z"/>
            <path class="cls-11" d="M5.73,118.97s2.09,2.16,3.64,2.45c1.55.3,6.35-.54,6.35-.54,0,0,.13,2.8.8,4.28.67,1.48,2.18,3.15,2.18,3.15,0,0-4.53-3.64-5.73-3.94-1.2-.3-4.22,1.43-4.22,1.43,0,0,.8-2.41-.18-3.59-.98-1.18-2.84-2.35-2.84-3.24Z"/>
            <path class="cls-11" d="M3.78,25.52s.62,2.04,1.51,2.42c0,0,.4,3.92,1.95,5.15s3.33,1.23,3.33,1.23c0,0,.52,1.46,1.65,2.36,0,0,.52,4.03.43,6.84,0,0-1.91-3.6-3.24-4.46-1.33-.86-7.55-1.25-7.55-1.25,0,0,.18-3.74,1-5.66.82-1.92,1.31-3.2,1.31-3.2,0,0-.84-3.44-.4-3.44Z"/>
            <path class="cls-11" d="M17.67,76.72s1.56,4.29,2.59,5.02c1.03.73,7.33,1.91,7.33,1.91,0,0-7.41,0-8.07.23-.66.23-1.85,2.05-1.85,2.05l.65-4.01s-.98-4.01-.65-5.2Z"/>
            <path class="cls-11" d="M18.7,113.52s.16,3.19,1.85,4.88c0,0,.54,4.7,2.3,7.02,1.77,2.33,4.61,4.92,6.01,6.52,1.4,1.6,2.68,4.79,2.68,4.79,0,0,3.83-.32,6.05-2.87,2.22-2.55,2.06-6.79,1.03-9.16-1.03-2.37-7.98-5.88-8.73-7.93-.74-2.05.21-7.93-.41-8.94-.62-1-2.55-3.42-2.88-5.24,0,0-.49,3.37.16,4.92.66,1.55,1.61,2.92,1.44,4.01-.16,1.09-1.23,1.96-1.52,2.92-.29.96.29,2.83-.37,3.65-.66.82-3.13,1.73-3.91.87-.78-.87-.7-2.42-.7-2.42,0,0-2.37-.32-3-3.01Z"/>
            <path class="cls-11" d="M23.99,16.34s1.86.54,3.6-.08,2.25-1.1,2.37-1.5c.13-.4-.3-1.38-.3-1.38l.97,1.36s2.17.34,3.44.88c0,0-2.19.03-2.83.28s-2.35.88-2.7,1.41c-.36.54-.1,3-.1,3,0,0-1.66-2.66-2.12-2.91-.46-.25-2.04-.34-2.32-1.05Z"/>
            <path class="cls-11" d="M16.92,18.57s.69,1.16.26,2.35-2.81,4.92-2.81,4.92c0,0,3.34-2.85,4.39-2.91,1.05-.06,4.69,1.02,4.69,1.02,0,0-1.33-2.06-2.5-2.66s-2.07-.06-2.42-.99c-.36-.93-.64-1.87-1.3-2.71-.66-.85-1.76-1.33-1.76-1.33,0,0,1.14,1.49,1.45,2.32Z"/>
            <path class="cls-11" d="M28.49,38.06l5.99-1.11c1.11-.21,2.24.21,2.99,1.13,1.23,1.5,3.4,3.64,5.92,3.89,3.93.38,6.56-1.52,7.98-1.64,1.43-.13,6.78,3.85,12.26,3.85,0,0-3.99.44-7.41-.63-3.42-1.07-3.14-1.77-5.13-1.39-2,.38-6.44,2.84-9.63,1.52-3.19-1.33-5.3-4.33-6.5-4.6-.94-.21-4.87.67-6.57.05-.48-.18-.4-.96.1-1.06Z"/>
            <path class="cls-11" d="M85.9,45.83c-.26-.15-.14-.6.15-.56,1.13.16,3.13.14,6.05-.99,2.38-.92,3.73-2.21,4.49-3.28.66-.94,1.86-1.13,2.75-.46,1.48,1.11,3.69,2.37,5.94,2.22,3.95-.26,8-5.12,10.28-5.33,2.29-.21,6.47,1.05,8.85,0,2.38-1.05,3.81-5.48,5.76-5.59,1.95-.11,2.95,1.27,6,.32,3.05-.95,4.52-8.38,6.09-8.86,1.03-.31,3.45.1,5,.42.28.06.28.51,0,.56l-3.99.7s-.19,4.97-4,7.49c-3.81,2.53-6.09.95-7.76,1.79-1.67.84-2.69,3.69-6.7,5.11-4.01,1.42-5.52.16-7.29.79-1.77.63-5.63,3.64-9.58,4.48-3.95.84-7.81-.9-9.09-.74-1.16.14-9.28,4.05-12.96,1.92Z"/>
            <path class="cls-11" d="M141.82,34.39c.16-.05,3.81-2.97,3.82-6.98,0,0,3.13.03,5.19-.95,0,0,1.69,3.39.05,6.92,0,0-.53-1.59-.81-1.82-.28-.23-3.22,1.03-3.52,1.28-.3.26-2.15,2.95-2.18,3.9s-.65,4.03-.65,4.03c0,0-.63-3.62-.69-3.95-.07-.33-1.2-2.44-1.2-2.44Z"/>
            <path class="cls-11" d="M154.51,23.74s3.57,2.41,5.72,2.21c0,0-2.36,2.67-2.86,3.33-.5.67-2.21,3.74-2.19,3.59.02-.15.88-3.05.42-4.95-.46-1.9-1.09-4.18-1.09-4.18Z"/>
            <path class="cls-11" d="M141.13,50.03c0-.31.4-.39.49-.09.32,1.03.84,2.38,1.43,2.59.71.25,3.38-1.35,4.77-2.22.22-.14.46.13.34.38-.39.75-.82,1.74-.67,2.14.26.68,1.76,2.82,2.06,4.33.18.88.22,2,.23,2.78,0,.28-.32.38-.46.15-.81-1.38-2.53-4.15-3.42-4.59-1.19-.58-2.68-.15-2.9.24-.22.39-.92,3.04-.92,3.04,0,0,.48-2.26.04-3.48-.35-.97-1.01-3.38-.99-5.28Z"/>
            <path class="cls-11" d="M153.3,43.89l.54,1.93c.02.06.02.11,0,.17l-.99,4.41s.88-3.14,1.93-3.23c.76-.07,2.38.52,3.22.86.22.09.43-.13.37-.38-.14-.61-.33-1.51-.25-1.79.07-.23.47-.94.82-1.55.16-.27-.1-.59-.36-.46-.76.4-1.81.87-2.4.84-.66-.03-1.77-.7-2.48-1.16-.22-.15-.49.09-.42.37Z"/>
            <path class="cls-11" d="M143.78,83.41c-.26-.54.35-1.06.76-.65.34.34.67.62.92.68.63.16,1.83-.23,2.26-.38.11-.04.2-.12.26-.23l1.06-1.9s-1.24,2.97-1.02,3.45,1.77,2.11,2.35,4.27c.58,2.17.67,3.2.67,3.2,0,0-1.55-4.28-3.37-4.32-.36,0-1.33.56-2.07,1.02-.35.22-.77-.1-.72-.55.11-.84.17-1.94-.11-2.6-.24-.57-.64-1.26-1-2Z"/>
            <path class="cls-11" d="M154.28,75.66l1.2,3.44s-1.11,2.76-1.2,5.61c-.04,1.21-.04,2.15-.04,2.83,0,.32.4.41.51.12.55-1.43,1.41-3.62,1.6-3.88.17-.24,1.28-.17,2.11-.08.41.05.76-.32.74-.77-.02-.33.02-.71.19-1.07.44-.93,1.07-3.84,1.11-4.77.04-.93,0-2.66,0-2.66,0,0-1.07,4.03-1.87,4.53s-.69,1.03-1.25.69-3.1-3.99-3.1-3.99Z"/>
            <path class="cls-11" d="M102.56,151.18c-.18-.82.65-1.45,1.26-.95,1.33,1.08,3.04,2.25,4.35,2.4,1.7.19,3-.1,3.65-.3.29-.09.6,0,.81.25,1.05,1.24,4.31.25,6.92.49,2.18.2,3.75-.55,4.51-1.03.32-.2.72-.14.98.15,1.14,1.28,4.37,4.35,8.54,3.44,3.83-.83,5.22-3.87,5.68-5.42.14-.48.61-.72,1.03-.55,1.38.55,4.36,1.39,7.65.13,3.46-1.33,4.86-4.13,5.33-5.38.13-.36.45-.58.8-.55,1.71.14,6.56.16,8.24-3.95,1.49-3.65.82-6.89.34-8.4-.15-.48.08-1,.52-1.15,1.5-.52,4.6-1.85,6.41-4.53.23-.34.71-.09.6.31-.38,1.38-1.29,3.33-3.44,5.34-.24.22-.35.57-.28.9.39,1.74,1.3,7.3-1.84,10.55-3.76,3.88-5.3,2.65-7.44,4.55-2.14,1.89-1.88,4.45-5.47,6.16-3.59,1.71-6.76.57-8.47,1.52-1.71.95-1.7,4.16-7.15,6.23-5.44,2.07-9.36-1.68-12.01-1.49-2.65.19-4.53,6.1-8.47,4.4-3.93-1.71-5.05-4.07-7.35-4.07h-2.28s-.04,0-.06,0l-2.87.24c-.32.03-.62-.16-.77-.47l-.3-.61c-.14-.28-.13-.62.02-.9.49-.9,1.42-3.28.56-7.29Z"/>
            <path class="cls-11" d="M76.45,148.42s-.32,4.78.73,7.37c1.05,2.59,1.53,4.11,3.79,5.81,2.26,1.7,9.43,2.5,11.37,2.32.74-.07,1.77-.43,2.75-.84.76-.32,1.37.72.82,1.37-.31.37-.6.69-.83.9-.97.89-5.35,3.13-8.72,3.22-3.37.09-6.92-2.05-8.13-.98-1.21,1.07-2.35,6.16-1.82,7.77.53,1.61,2.79,8.04,5.05,9.47,2.26,1.43,7.34,1.79,10,.63,1.73-.75,4.24-2.9,5.79-4.32.54-.49,1.34.01,1.24.77-.15,1.12-.46,2.6-1.06,4.23-1.29,3.5-3.39,5.47-4.43,7.97-.33.79-.68,1.86-1,2.95-.25.85-1.36.74-1.48-.15-.14-1.12-.38-2.15-.75-2.71-1.13-1.7-5.32-5.18-6.93-5-.95.11-1.82,1.3-2.37,2.26-.31.53-1.01.51-1.3-.03-1.19-2.28-3.58-7.41-4.47-13.22-1.21-7.86,1.69-19.02,1.69-19.92s-2.1-6.43.08-9.87Z"/>
            <path class="cls-11" d="M155.79,116.94l2.49,2.5c.42.42.48,1.12.15,1.63-.47.71-1.09,1.75-1.33,2.64-.31,1.11-.56,3.83-.67,5.27-.04.54-.4.98-.88,1.08-.87.19-2.25.57-3.07,1.27-.11.09-.21.19-.32.29-.79.77-2.02-.09-1.77-1.23.32-1.47.81-2.94,1.55-3.79,1.07-1.23,1.75-2.04,2.12-2.5.24-.29.33-.68.26-1.06-.2-1.05-.55-3.33-.34-5.35.1-.99,1.17-1.44,1.83-.77Z"/>
            <path class="cls-15" d="M3.3,88.82s2.04-2.73,2.72-2.87c.68-.14,4.46.42,4.97.85.51.42,1.06,4.75.81,5.41-.25.66-1.74,2.99-1.74,2.99,0,0,1.27,4.12.25,4.82-1.02.71-5.31-.66-5.99-2.12-.68-1.46-1.88-6.63-1.03-9.08Z"/>
            <path class="cls-15" d="M3.23,73.88s-1-3.22.85-2.53c1.85.69,2.28,1.64,2.28,1.64,0,0,2.23-4.1,3.8-2.68,1.57,1.42,1.66,5.57,1.09,6.62-.57,1.05-2.89,4.78-3.82,4.62-.93-.16-2.4-1.47-2.97-2.68s-1.23-4.99-1.23-4.99Z"/>
            <path class="cls-15" d="M3.66,59.55s-.71-3.48.38-3.8,3.22-.79,3.91-.21c.69.58,3.11,4.41,2.82,5.62s-2.56,4.36-4.03,3.68c-1.47-.68-3.13-3.96-3.08-5.29Z"/>
            <path class="cls-15" d="M2.87,39.93s3.84-.63,5.26,0c1.41.63,3.64,4.95,3.45,6.02-.19,1.07-3.04,2.97-4.01,2.49-.97-.47-4.01-3.36-4.34-4.36-.33-1-.36-4.15-.36-4.15Z"/>
            <path class="cls-15" d="M4.75,21.75s1.42-4.1,3.27-4.92c1.85-.81,4.55-1.61,5.69-.58,1.14,1.03,1.9,2.64,1.76,4.04s-3.88,8.6-3.88,8.6l1.44-.18s4.53-4.2,5.88-4.19c1.35,0,4.49,1.13,5.08,1.99.59.86.45,3.06.45,3.06,0,0,4.41-1.52,6.07-.95s5.74,3.47,5.98,3.99c.24.53-1,1.33-3.32,2.24-2.32.91-4.84,2.01-6.26,1.33-1.42-.68-3.45-2.79-3.45-2.79,0,0-3.02,2.59-6.14,1.11-3.12-1.48-3.75-3.11-3.75-3.11,0,0-1.93.32-3.03-.53-1.09-.84-2.47-4.38-2.47-4.38,0,0-1.9.26-2.47-.99-.57-1.25-.85-3.77-.85-3.77Z"/>
            <path class="cls-15" d="M34.07,16.83s2.42.7,3.51,2.2c1.09,1.5.05,1.98,1.76,2.61,1.71.63,6.03-.42,9.16.84,3.13,1.26,5.65,3.78,7.4,3.99,1.76.21,5.55-2.05,8.21-1.63,2.66.42,6.36,2.15,5.6,3.1-.76.95-7.15-.94-7.39-.94s-4.11,3.73-8.08,2.89c-3.98-.84-6.73-4.2-6.73-4.2,0,0-2.28.47-3.46-.16-1.19-.63-2.13-1.68-2.13-1.68,0,0-6.07.58-8.87-.84-2.8-1.42-3.42-4.73-2.8-5.36.62-.63,3.84-.82,3.84-.82Z"/>
            <path class="cls-15" d="M20.21,12.45s3.18-1.63,5.22-1.26c2.04.37,3.82,2.68,3.6,3.1-.23.42-3.73,1.37-4.4.95-.67-.42-2.43-2.44-2.43-2.44,0,0-2.46.6-1.99-.35Z"/>
            <path class="cls-15" d="M40.85,35.99s4.16-.94,6.9-.38c2.74.56,8.08,2.62,8.08,2.62,0,0,4.33-1.2,6.48-.5,2.15.7,4.74,1.8,3.87,2.86-.86,1.05-5.5,1.23-7.81.79-2.31-.43-6.93-2.86-6.93-2.86,0,0-3.12,2.43-7.17,1.04-4.05-1.39-5.55-3.2-3.42-3.56Z"/>
            <path class="cls-15" d="M70.17,40.58s5.88-2.5,8.7-2.07c2.82.43,6.01,2.77,6.01,2.77,0,0,5.05-2.99,7.4-3.06,2.35-.07-5.15,6.15-7.4,6.04-2.25-.11-3.43-.79-3.43-.79,0,0-2.89,1.77-7.05.79-4.16-.98-6.63-2.79-4.23-3.69Z"/>
            <path class="cls-15" d="M90.8,27.39c.31-.35,6.4-3.32,8.89-3.22,2.48.09,3.89.88,3.89.88,0,0,4.2-4.17,6.67-3.91,2.47.26,3.76-.01,3.76-.01,0,0,4.61-3.64,6.93-3.9,2.32-.26,3.88,0,3.88,0,0,0,3.23-6.86,5.81-7.56,2.59-.69,6.08-.9,6.53.46.45,1.36-2.84,5.97-5.28,6.4-2.43.43-4.08.52-4.08.52,0,0-2.67,6-5.57,6.13-2.9.13-5.62,0-5.62,0,0,0-2.22,3.14-5.59,3.28-3.37.15-4.94-.46-4.94-.46,0,0-2.12,2.75-4.78,2.72-2.67-.03-4.47-.81-4.47-.81,0,0-7.84,3.74-11.21,2.69-3.37-1.04-6.13-4.2-2.36-4.14,3.77.06,7.53.93,7.53.93Z"/>
            <path class="cls-15" d="M115.58,32.88s4-2.34,6.27-2.09c2.27.25,3.84-1.14,5.57-3.14,1.73-2,3.99-4.38,5.99-4.36,2,.02,2.94,0,2.94,0,0,0,3.84-6.14,6.04-5.32,2.2.82-3.14,5.78-3.14,5.78,0,0-1.73,6.86-5.02,6.95-3.29.09-5.25-.24-6.12.1-.86.34-1.96,4.85-5.72,5.03-3.76.17-5.78-.49-5.78-.49,0,0-6.85,5.01-8.5,3.7-1.65-1.3,3.29-6.05,7.45-6.15Z"/>
            <path class="cls-15" d="M139.96,6.98s2.43-2.35,5.41-2.08c2.98.26,4.7,2.16,4.63,2.69-.08.53-6.87,3.01-8.18,2.55-1.31-.46-3.42-2.89-1.86-3.15Z"/>
            <path class="cls-15" d="M157.36,12.79s3.11,2.44,3.87,5.17c.76,2.73-1.75,4.82-2.85,4.38-1.1-.43-4.23-3.65-4.23-3.65,0,0-2.12,3.74-3.69,2.35-1.57-1.39,2.59-4.86,2.59-4.86,0,0,1.57-2.26,2.27-2,.71.26,1.02.96,1.02.96,0,0,.06-2.7,1.01-2.35Z"/>
            <path class="cls-15" d="M25.7,138.83s-5.14,2.81-8.94,1.01c-3.8-1.8-7.64-10.22-6.47-11.52,1.17-1.3,5.95,1.72,5.95,1.72,0,0,3.8.65,4.84,2.67,1.04,2.02.72,4.32.72,4.32,0,0,4.75.58,3.9,1.8Z"/>
            <path class="cls-15" d="M8.86,119.65c-.3-.22-2.6-1.48-3.38-4.26-.78-2.78-1.24-6.31-1.11-7.47.13-1.15,4.68-1.25,5.27-1.09.59.16.98,7.07.98,7.07,0,0,2.38,3.39,1.61,4.32-.77.94-2.67,1.94-3.37,1.42Z"/>
            <path class="cls-15" d="M19.92,111.8c.2-.5-3.12-4.96-2.31-8.85.81-3.89,2.39-9.28,2.32-9.57s-1.18-4.38-.79-5.76c.39-1.38,3.22-2.32,3.79-2.17s3.69,4.25,2.97,5.84c-.72,1.58-3.7,3.6-3.7,3.6,0,0,2.01,2.02,1.42,4.32-.59,2.31-1.88,3.96-1.88,3.96,0,0,4.03,5.69,3.96,7.64-.06,1.95-1.92,3.75-3.11,3.39-1.19-.36-2.68-2.39-2.68-2.39Z"/>
            <path class="cls-15" d="M21.35,79.68c-.16-.2-2.73-3.52-2.41-5.4.33-1.87,2.41-5.11,2.41-5.11,0,0-2.08-5.15-2.11-6.46-.03-1.32,2.28-5.28,3.69-4.49,1.41.79,1.28,7.64,1.28,7.64,0,0,2.34,2.45,2.6,4.47.26,2.02-2.02,6.92-2.02,6.92,0,0,1.12,1.08,1.21,2.16.09,1.08-3.57,1.68-4.66.28Z"/>
            <path class="cls-15" d="M77.82,145.18s2.99-6.28,7.13-7.26c4.14-.99,9.34,2.09,9.34,2.09,0,0,6.4-.58,8.87.81,2.47,1.39,6.35,3.31,4.98,4.82-1.36,1.51-3.93,2.09-4.88,1.45-.94-.64-4.78-4.01-4.78-4.01l-2.77.41-.16,3.25s3.04,5.17,2.78,7.96c-.26,2.79-2.2,6.92-5.56,6.97-3.36.06-10.96-.81-13.01-3.6-2.05-2.79-2.78-11.56-1.94-12.9Z"/>
            <path class="cls-15" d="M80.13,169.76s-2.15,3.25-1.73,5.17c.42,1.92,3.04,8.54,4.46,8.89,1.42.35,4.93.93,7.66-.58,2.73-1.51,6.4-3.78,5.77-6.25-.63-2.47-1.68-3.46-1.68-3.46,0,0,2.1-3.49,1.63-4.3-.47-.81-8.26,1.63-8.26,1.63,0,0-7.21-2.18-7.84-1.1Z"/>
            <path class="cls-15" d="M81.34,192.89s1.21-2.56,2.52-1.8c1.31.76,5.56,4.67,5.35,6.55-.21,1.88-3.93,2.92-3.93,2.92,0,0,1.72.41,2.7,1.22.97.81,1.65,5.87.87,6.16s-4.41.93-5.04.29c-.63-.64-.73-8.43-1.1-9.59-.37-1.16-1.62-5.29-1.36-5.75Z"/>
            <path class="cls-15" d="M153.46,111.26s-2.28-1.59-3.06-4.28c-.77-2.68-1.3-5.2-1.3-5.2,0,0-5.16-3.36-5.38-6.54-.22-3.19-.91-6.83,2.58-4.48,3.48,2.35,2.8,3.13,2.8,3.13,0,0,4.87,4.11,5.81,6.54.93,2.43,0,5.29,0,5.29,0,0,6.01,1.85,7.52,4.7,1.51,2.85.08,6.38-3.11,5.29-3.18-1.09-5.87-4.45-5.87-4.45Z"/>
            <path class="cls-15" d="M168.87,110s2.05-3.93.76-7.76-7.42-6.93-7.42-6.93c0,0-.48-5.29-1.68-5.71-1.2-.42-.85,7.13,0,7.8s3.52,1.43,3.52,1.43l2.41,5.2s-1.51,7.72-.61,8.31c.91.59,3.03-2.35,3.03-2.35Z"/>
            <path class="cls-15" d="M142.92,60.72s-1.87,3.61-1.11,5.87c.77,2.27,2.73,5.29,2.73,5.29,0,0-2.13,7.55-.84,8.56,1.29,1.01,3.4-6.29,2.99-8.64-.41-2.35,0-4.45,0-4.45,0,0,1.45-3.44.78-5.71-.66-2.27-.75-3.69-2.03-3.36-1.28.34-2.53,2.43-2.53,2.43Z"/>
            <path class="cls-15" d="M145.46,41.92c-.52.34-2.72,3.44-2.53,5.62.19,2.18-1.33,3.36.79,3.27,2.12-.08,4.4-2.37,4.24-3.87-.15-1.5-.7-7.12-1.26-6.79-.56.34-1.25,1.76-1.25,1.76Z"/>
            <path class="cls-15" d="M157.81,32.02c-.15.34-4.53,5.23-4.31,7.23.22,2,3.35,4.54,3.87,4.24s2.78-1.59,2.86-3.34c.08-1.75-.05-7.96-.32-8.12-.27-.17-2.09,0-2.09,0Z"/>
            <path class="cls-15" d="M154.51,51.23s-1.98,3.61-1.23,5.62c.75,2.01,2.65,5.45,2.65,5.45,0,0-1.57,8.64-1.02,8.98.55.34,1.96-8.89,1.96-8.89,0,0,2.76-8.14,1.77-9.82-.98-1.68-3.2-3.52-4.14-1.34Z"/>
          </g>
        </g>
      </g>
      <g class="cls-16">
        <g>
          <g>
            <path class="cls-5" d="M139.89,30.37s-8.79-.56-20.54,0c-14.37.69-20.24,1.18-32.66,3.72s-30.53-7.29-47.64-5.86c-17.11,1.43-26.88,18.86-25.01,38.68,1.87,19.81,11.79,30.28,10.78,44.07-1.01,13.79-.11,24.52,6.68,31.37,12.48,12.59,36.06,7.6,49.14,6.81,13.08-.79,49.54,3.83,57.3.34,7.76-3.49,15.09-8.4,16.24-23.46,1.15-15.06-6.61-40.58-6.18-46.13.43-5.55,13.01-51.59-8.12-49.53Z"/>
            <g>
              <path class="cls-13" d="M141.81,86.34c-.02.1-.7,5.91-2.89,6.96-2.19,1.05-7.68-.24-9.83-1.68-2.16-1.43-4.25-5.32-1.81-5.42,2.44-.1,8.22,2.59,8.22,2.59,0,0,6.88-6.05,6.31-2.45Z"/>
              <path class="cls-13" d="M114.37,78.46s-13.05-.34-16.47-5.07c-3.42-4.73-1.49-13.77,4.16-14.25,5.65-.48-.44,7.95-.44,7.95,0,0,2.42.5,2.67,2,.25,1.5.47,2.94.47,2.94,0,0,17.47,5.01,9.6,6.44Z"/>
              <path class="cls-13" d="M112.62,89.15s-8.69,2.67-14.78,0c-6.09-2.67-7.89-6.17-7.46-9.32.44-3.15,9.13,4.18,9.13,4.18,0,0,18.99,2.88,13.1,5.14Z"/>
              <path class="cls-13" d="M108.34,104.16s-3.67-.21-6.03-2.74c-2.36-2.54-3.67-3.29-2.67-4.52.99-1.23,14.54-4.75,15.72-2.62,1.18,2.14-6.34,6.04-6.34,6.04,0,0,1.49,4.04-.68,3.84Z"/>
              <path class="cls-13" d="M95.73,96.42s-2.67.95-5.1-.42c-2.42-1.37-5.34-5.21-4.23-6.1,1.12-.89,5.65,3.95,5.65,3.95,0,0,6.52,1.89,3.67,2.57Z"/>
              <path class="cls-13" d="M67.58,85.18s-9.58,2-20.69.44c-11.12-1.56-16.59-9.42-16.22-10.66.37-1.23,6.21,7.47,16.78,8.77,10.82,1.33,26.22-.19,20.13,1.44Z"/>
              <path class="cls-13" d="M93.55,72.02s-2.92,2.47-7.39,2.33c-4.48-.14-8.33-1.9-7.96-3.66.37-1.76,5.1-1.9,5.1-1.9,0,0,4.04-4.82,6.65-3.06,2.61,1.77,4.97,4.99,3.6,6.29Z"/>
              <path class="cls-13" d="M74.94,71.81s-4.63,1.44-7.05,1.51c-2.42.07-7.95-.14-7.83-2.12.12-1.99,7.44-1.35,7.44-1.35,0,0,11.14-.57,7.44,1.97Z"/>
              <path class="cls-13" d="M57.89,72.57s-6.71,1.92-10.38,0c-3.67-1.92-8.33-11.03-4.29-12.06,4.04-1.03,6.96,8.28,6.96,8.28,0,0,10.69,2.61,7.71,3.78Z"/>
              <path class="cls-13" d="M90.76,124.44s-6.73,9.02-14.29,7.88c-7.56-1.14-13.48-12-9.2-13.95,4.29-1.95,11.62,8.19,11.62,8.19,0,0,14.23-8.09,11.87-2.12Z"/>
              <path class="cls-13" d="M127.91,112.65s.93,6.44-3.17,6.17c-4.1-.27-2.11-8.91-2.11-8.91,0,0-1.37.34-2.24-1.23-.87-1.58-.99-2.66-.99-2.66,0,0-2.42,3.28-3.6,3.14,0,0,1.62,6.1,0,7.61,0,0,1.37,8.93-1.12,8.51-2.49-.42-1.68-5.9-1.68-5.9,0,0-1.86-6.03-1.24-11.03.62-5,6.52-6.84,10.25-5.95,3.73.88,4.18,3.7,4.18,3.7,0,0,3.53,1.84,1.73,6.57Z"/>
              <path class="cls-13" d="M131.67,72.76s-5.52.42-9.15-4.03-6.46-22.63-10.82-25.28c0,0,0-1.84,2.61,0,2.61,1.84,3.92,4.7,3.92,4.7,0,0,4.21-1.59,6.32,2.42,2.11,4.01,1.09,9.54,1.09,9.54,0,0,1.23.11,1.82,2.14.58,2.03-.22,4.67-.22,4.67,0,0,12.85,4.48,4.43,5.85Z"/>
              <path class="cls-13" d="M94.42,59.12s-10.89-4.16-9.8-6.07c1.09-1.91,9.34.19,9.34.19,0,0,5.7-3.7,6.96-1.9s-5.99,7.9-6.5,7.77Z"/>
              <path class="cls-13" d="M64.86,51.22s-3.34,3.54-6.1,3.17c-2.76-.37-10.36-4.73-7.87-6.03,2.49-1.3,8.81,1.98,8.81,1.98,0,0,7.04-1.2,5.16.88Z"/>
              <path class="cls-13" d="M80.11,112.49s-.05-6.49,1.21-9.37c1.26-2.88,4.98-6.84,5.37-4.06.39,2.78-5.56,17.67-6.58,13.43Z"/>
              <path class="cls-13" d="M96.5,119.05s-2.81-2.88-3.32-8.01c-.51-5.13.73-8.89,2.25-8.41,1.53.48,4.43,4.08,5.66,4.56,1.23.48-.51,5.21-2.18,5.05,0,0-.55,9.64-2.41,6.81Z"/>
              <path class="cls-13" d="M53.46,137.47s-4.43-4.06-5.59-10.12c-1.16-6.06,0-14.53,2.18-11.94,2.18,2.6,3.41,11.08,3.41,11.08,0,0,5.37,12.01,0,10.97Z"/>
              <path class="cls-13" d="M39.87,105.32s-5.74-5.24-5.52-10.49c.22-5.25,4.94-7.33,6.68-6.05,1.74,1.28-1.02,7.21-1.02,7.21,0,0,3.7,11.12-.15,9.33Z"/>
              <path class="cls-13" d="M139.24,128.92s.73-3.25.45-6.09c-.29-2.83-2.24-6.77-2.24-6.77,0,0,2.62-6.09,2.62-10.81s-.76-7.44-1.81-6.37c-1.05,1.07-.29,8.57-.29,8.57,0,0-5.95,6.77-4.47,11.7,1.48,4.93,2.95,6.13,2.95,6.13,0,0-1.57,9.88.62,10.77,2.19.89,2.72-2.62,2.17-7.14Z"/>
              <path class="cls-13" d="M81.32,89.44s-3.83.47-6.35-1.03c-2.52-1.5-5.21-3.87-3.91-4.88,1.3-1.01,5.42,2.09,5.42,2.09,0,0,6.49-2.8,6.93-.72.44,2.07-.22,4.14-2.09,4.55Z"/>
              <path class="cls-13" d="M66.21,96.42s-8.14,4.49-12.41,4.01,6.26-4.82,6.26-4.82c0,0,6.42-5.91,7.24-3.86.82,2.05.98,3.01-1.09,4.67Z"/>
            </g>
            <g>
              <path class="cls-12" d="M87.58,59.35c-1.84.29-5.04,1.11-6.22,3.35-.13.24-.2-.2-.38-.4-2.1-2.44-7.16-3.82-9.64-3.64-2.25.17-4.22,1.21-4.94,1.77-.18.14-.32.33-.47.15-.59-.65-2.15-2-4.4-1.17-2.92,1.07-4.76,4.82-8.45,2.36-3.37-2.25-2.94-6.19-6.88-6.86-.45-.08-.57-.73-.17-.97.96-.58,2.49-1.17,4.43-.74,3.4.75,6.12,3.43,10.01,2.68,3.01-.58,4.62-1.96,5.2-2.55.15-.15.37-.18.55-.06.97.63,4.2,2.45,9.02,2.18,4.47-.25,6.49-1.12,7.18-1.52.19-.11.41-.07.55.1.62.71,2.35,2.58,4.81,4.37.36.27.24.88-.19.95Z"/>
              <path class="cls-12" d="M115.81,60.11c-3.29-3.16-6.71-4.69-10.56-4.23-.15.02-.27-.14-.21-.29.4-1.02,1.4-4.14.23-7.2-1.12-2.94-3.37-4.9-4.27-5.6-.14-.11-.1-.36.08-.39,1.45-.29,5.9-.89,8.33,1.93,2.68,3.1,5.02,9.16,6.81,16.14.06.24-.25-.2-.41-.36Z"/>
              <path class="cls-12" d="M64.22,105.28c-1.2-.59-4.79-2.27-8.09-2.89-.39-.07-.41-.69-.02-.79,2.14-.59,5.48-1.53,7.64-2.27,2.64-.9,5.43-2.31,6.53-2.89.11-.06.21.09.13.19-1.21,1.52-5.11,6.51-5.69,8.42-.07.23-.29.33-.49.23Z"/>
              <path class="cls-12" d="M124.47,139.06c.1-.55-1.29-.56-1.66-.93-.77-.77-2.12-1.52-2.38-4.68-.19-2.27.18-5.53.36-6.8.08-.56,0-1.13-.26-1.63-.6-1.19-1.69-3.63-2-6.29-.18-1.56-.12-3.23.01-4.64.04-.44-.53-.57-.66-.15-.61,2.01-1.18,4.49-.89,6.12.55,3.12,1.65,7.03,1.54,8.78-.12,1.74-1.25,7.4,0,9.75,1.1,2.06,5.56,2.64,5.94.49Z"/>
              <path class="cls-12" d="M127.33,82.37l-6.64,2.57-8.21-4.28h7.98s5.98.89,6.87,1.72Z"/>
              <path class="cls-12" d="M143.89,85.05s-2.35-5.14-5.57-6c-3.22-.86-5.92,1.1-5.92,1.1,0,0,0-2.04-1.81-2.79-1.81-.75-4.59-.37-4.59-.37v-3.19s4.52,1.79,6.81,1.71c2.29-.08,7.35-1.31,7.35-1.31,0,0-.34,1.23.38,2.07.72.83,3.01,5.03,3.01,5.03l.33,3.76Z"/>
              <path class="cls-12" d="M129.28,94.08s-4.38-.94-6.33-.23c-1.95.72-2.92,1.85-2.92,1.85,0,0-.33-1.96-2.01-2.64-1.68-.68-4.62-1.09-4.62-1.09,0,0,5.89-2.03,5.97-2.13.09-.1,1.97-.75,1.97-.75,0,0,2.12,1.56,2.23,1.71.1.15,4.62,2.48,4.62,2.48l1.1.8Z"/>
              <path class="cls-12" d="M130.35,116.16s.58-7.34-.74-10.73c-1.32-3.39-4.17-4.67-4.17-4.67,0,0,3.46.14,5.57,2.6,2.11,2.45,3.04,4.79,2.8,6.15-.24,1.36-1.85,3.81-1.85,3.81,0,0,.34,2.42.1,3.47-.24,1.06-2.09,3.74-2.09,3.74l.38-4.38Z"/>
              <path class="cls-12" d="M108.88,125.64l1.17-3.09s-.93-3.59-1.03-7.79c-.1-4.19,1.03-8.49,1.03-8.49,0,0-3.11,0-5.38-1.12-2.27-1.12-3.15-1.86-3.15-1.86,0,0,2.88,2.87,3.53,4.68.65,1.81,0,5.27,0,5.27,0,0,1.81,4.58,1.92,6.85.1,2.27-1.2,8.27-2.26,9.1-1.06.83-4.59-.34-4.59-.34,0,0-1.75,1.28-2.43,1.36-.68.08-3.39-.57-3.39-.57l-.48-2.45.31-4.11.63-1.96s-2.71-4.18-3.3-7.86c-.58-3.69-.43-7.56-.43-7.56,0,0-3.4,4.67-2.34,9.24s4.11,8.15,4.11,8.15l-1.45,3.94-5.64,5.14-2.77,1.64s3.36.39,4.49.67c1.13.27,2.6.74,2.6.74,0,0,4.87-1.5,7.67-1.17s5.59,1.37,5.59,1.37c0,0,.77.58,1.42.57s3.6-.15,3.6-.15l.79-.62s-.68-4.35-.68-5.79.48-3.78.48-3.78Z"/>
              <path class="cls-12" d="M123.01,137.09s3.7-2.69,4.25-3.11,3.31-3.95,3.31-3.95c0,0,1.07,3.27,1.72,4.17s5.17,4.15,6.57,3.78c1.4-.38,2.92-1.44,2.92-1.44,0,0,.23,1.89-.9,2.79-1.13.91-2.25,1.33-2.25,1.33l-2.54-.22s-2.44-3.45-6.17-4.01c-3.73-.57-4.16-.66-4.5-.46-.33.2-2.43,1.12-2.43,1.12Z"/>
              <path class="cls-12" d="M77.51,134.46s-3.24-.1-5.19-1.43c-1.95-1.33-3.3-2.61-3.3-2.61l-.34,1.69-1.31,3.09s1.63-.23,3.13.07c1.51.3,2.87.77,2.87.77,0,0,1.39.25,1.66.17s2.48-1.75,2.48-1.75Z"/>
              <path class="cls-12" d="M59.64,119.68s-4.44-9.94-9.13-12.13c-4.69-2.19-8.11-.79-8.11-.79l-3.6,1.63-2.4,2-2.35,3.27s-1.54-2.28-1.34-3.38c.21-1.1.91-3.17.91-3.17v-3.29l-.64-1.95s2.09,2.6,2.6,3.12c.51.53,4.96,1.74,6.47,1.02,1.51-.72,3.07-3.51,3.07-3.51,0,0,3.02,2.3,4.7,2.6,1.68.3,4.18.22,4.18.22l3.53,5.82,2.11,8.54Z"/>
              <path class="cls-12" d="M51.62,138.24s-3.1-2.41-4.67-7.13c-1.57-4.72-1.82-10.46-1.82-10.46,0,0-3.01,5.96-2.66,9.06.34,3.1,1.1,5.48,1.1,5.48l7.77,4.78.29-1.75Z"/>
              <path class="cls-12" d="M115.46,37.47s-5.8-1.19-9.92,0c-4.12,1.19-8.39,5.42-8.39,5.42l.69-3.45-.03-3.87s5.44-1.46,9.52-.89c4.08.57,8.13,2.79,8.13,2.79Z"/>
              <path class="cls-12" d="M49.13,39.92s-3,.78-3.57,2.33c-.56,1.55-.67,2.95-.67,2.95,0,0-3.2-1.5-6,0-2.8,1.5-4.02,6.04-4.02,6.04,0,0-3.9,2.55-4.18,4.88-.28,2.33.2,4.66.2,4.66,0,0-1.14,2.23-1.28,3.57-.14,1.35.61,5.41.61,5.41,0,0-4.04-1.06-4.46-3.7-.42-2.64.28-9.88.28-9.88l2.44-6.21s4.79-7.04,5.96-7.56c1.17-.52,5.44-3.93,7.27-3.93s7.41,1.45,7.41,1.45Z"/>
              <path class="cls-12" d="M89.45,84.48s-2.31-4.41-4.16-4.59c-1.84-.19-3.88.34-3.88.34,0,0-.24-2.32-1.05-2.85-.81-.53-5.73-1.32-5.73-1.32l.14-1.48,2.6-1.25s3.3,1.82,4.21,2.08c.91.25,2.27.6,3.33.75,1.05.16,1.82.32,2.01.32s2.5-.37,2.5-.37c0,0-1,2.43-.9,4.26.1,1.82.93,4.12.93,4.12Z"/>
              <path class="cls-12" d="M78.93,103.05s.61-5.22.12-7.15c-.49-1.93-3.64-5.33-3.64-5.33,0,0,1.79,1.11,3.09,1.33,1.3.21,4.77-.33,4.77-.33l.79,2.13.66.89s-4.67,5.14-5.79,8.47Z"/>
              <path class="cls-12" d="M37.61,85.35l-2.25,1.51-3.53,3.76s.68-3.58.81-3.89-.28-4.09-.31-4.24c-.02-.16-.5-1.55-.5-1.55,0,0,2.51,2.15,2.89,2.31.37.16,2.23,1.13,2.49,1.26s1.7,1.07,1.7,1.07l-1.34-.4.04.17Z"/>
              <path class="cls-12" d="M62.89,88.41l-11.2,3.01-7.8-4.47s7.54,1.83,9.72,1.79c2.18-.04,7.47-.3,7.69-.39s1.59.05,1.59.05Z"/>
            </g>
            <g>
              <path class="cls-8" d="M131.01,132.03c-.93-3.43-1.58-6.99-1.65-10.56.06-6.22,3.07-18.33-4.8-20.63-4.1-1.4-9.44-.97-12.38,2.49-.65.78-1.18,1.67-1.46,2.65-1.48,5.37-1.51,11.35-.24,16.77-1.22,3.38-1.76,7.12-1.42,10.72.1,1.21.36,2.39.66,3.57-.81-2.3-1.25-4.74-1.25-7.19-.04-2.48.38-4.92,1.26-7.26,0,0-.02.25-.02.25-.69-2.83-.92-5.69-.89-8.56.17-8.42,1.85-14.91,11.69-14.91,4.56.08,9.09,2.24,9.73,7.19,1.1,5.66-.24,11.41-.16,17.04.08,2.82.38,5.65.91,8.44h0Z"/>
              <path class="cls-8" d="M140.38,74.14c-5.82,1.87-12.96,2.04-17.9-2.07-2.78-2.57-4.27-6.21-5.54-9.68-1.69-4.64-2.81-9.49-4.96-13.85-1.78-4.79-7.15-6.4-12-5.84,3.54-.78,7.99-.59,10.61,2.33,3.89,4.94,4.87,11.43,7.05,17.11,1.46,3.91,3.11,8.12,6.77,10.42,4.75,2.76,10.67,2.44,15.96,1.59h0Z"/>
              <path class="cls-8" d="M133.03,85.65c-4.83-4.86-12.09-4.08-18.37-4.48-4.88-.31-9.98-.68-14.43-2.95-7.61-3.7-7.69-17.08-.55-21.34,5.85-3.43,14.17-.85,17.45,4.92-3.65-5.18-11.48-7.37-17.06-4.27-6.63,3.94-6.58,16.61.52,20.03,4.33,2.2,9.32,2.56,14.12,2.87,6.32.28,13.92-.24,18.33,5.23h0Z"/>
              <path class="cls-8" d="M120.46,69.08c-4.96-2.04-10.38-2.72-15.69-1.91,5.11-1.86,11.16-1.1,15.69,1.91h0Z"/>
              <path class="cls-8" d="M140.96,75.92c2.9,2.07,5.09,5.41,5.3,9.15.08,3.65-1.41,7.68-4.8,9.46-3.34,1.72-7.31,1.38-10.76.22-3.44-1.22-6.52-3.18-9.34-5.49,0,0,.4.06.4.06-6.86,2.77-14.44,4.3-21.79,2.86-3.63-.82-7.33-2.36-9.64-5.42-2.09-3.01-2.78-7.39-.92-10.64-1.6,3.24-.61,7.44,1.53,10.18,2.16,2.9,5.75,4.36,9.19,5.14,7.13,1.42,14.66-.11,21.32-2.81,0,0,.22-.09.22-.09,0,0,.18.15.18.15,5.18,4.21,12.61,8.32,19.25,5.18,3.15-1.63,4.43-5.4,4.42-8.78.05-3.49-1.85-6.86-4.57-9.17h0Z"/>
              <path class="cls-3" d="M95.9,61.83s-6.77-.29-13.12-7.76c0,0-3.41,1.89-8.41,1.66-5.01-.22-7.79-2.33-7.79-2.33,0,0-3.35,3.23-7.42,2.73-4.06-.49-8.19-5.39-14.76-1.25-6.57,4.14-4.63,14.56,1.75,18.7,6.38,4.14,14.08.55,14.08.55,0,0,11.01,2.9,16.83-1.03,0,0,9.2,7.12,18.93.18"/>
              <path class="cls-8" d="M88.52,59.11c-2.63.57-5.66,1.71-6.67,4.41,0,0-.4-.42-.4-.42-2.83-2.99-7.1-4.53-11.18-3.78-1.17.2-2.73.67-3.32,1.69,0,0-.29.57-.29.57-1.42-2.26-3.75-2.51-5.88-1.01-1.47.9-3.19,2.22-4.61,3.22-1.6.87-3.36,2.25-5.27,1.9,1.52.08,2.77-1.03,3.95-1.85.99-.79,2.61-1.88,3.64-2.64,1.85-1.28,4.11-3.06,6.5-2.04.77.33,1.41.82,1.93,1.51l-.66.08c.85-1.49,2.41-1.85,3.9-2.16,4.34-.79,8.85.82,11.87,4.02,0,0-.63.1-.63.1,1.18-2.71,4.46-3.47,7.13-3.59h0Z"/>
              <path class="cls-1" d="M110.27,106.07s-9.03.56-12.07-7.14c0,0-4.74,1.59-9.69-1.72-4.46-2.99-5.02-5.68-5.02-5.68,0,0-8.55,1.32-13.79-4.26,0,0-28.92,8.06-45.88-12.42"/>
              <g>
                <path class="cls-10" d="M124.18,138.67s-3.86.04-3.43-6.14c.43-6.18.32-6.94.32-6.94,0,0-3.7-6.48-1.74-14.11"/>
                <path class="cls-8" d="M124.18,138.67c-5.74-.61-3.06-9.19-3.48-13.02-1.45-2.62-2.46-7.1-2.08-10.59.1-1.22.37-2.42.72-3.57-.86,4.69-.14,9.7,2.06,13.92.18,2.3-.26,5.3-.36,7.59-.21,2.29.45,5.32,3.15,5.67h0Z"/>
              </g>
              <path class="cls-8" d="M85.12,94.28c-5.22,4.62-7.4,11.74-7.39,18.53,0,.99.07,1.97.06,2.97-.17-.98-.32-1.96-.43-2.95-.6-6.88,1.8-14.59,7.76-18.55h0Z"/>
              <path class="cls-1" d="M92.88,99.06s-2.51,6.79-1.51,12.91c.99,6.12,3.45,8.95,3.45,8.95,0,0-2.54,7.86,1.68,14.89"/>
              <path class="cls-8" d="M94.82,120.93c-4.02,12.94-20.82,20.39-28.53,6.25-2.87-5.62-3.31-12.21-2.49-18.38.88-6.3,4.98-11.74,10.25-15.1-4.8,3.82-8.54,9.11-9.51,15.23-.8,5.95-.36,12.5,2.41,17.91,7.84,13.84,22.75,5.75,27.87-5.89h0Z"/>
              <path class="cls-8" d="M69.02,130.42c-.14,3.71-2.2,7.29-5.48,9.11-3.22,1.77-7.44,2.51-10.69.41-5.85-4.03-7.94-12.97-7.73-19.71,1.18,6.71,2.17,14.84,8.13,19.07,2.96,1.95,6.91,1.21,9.91-.43,3.05-1.8,5.04-5.03,5.86-8.46h0Z"/>
              <path class="cls-8" d="M60.64,122.28c-2.48-5.84-6.06-12.62-12.25-15.05-4.67-1.56-10.11.78-13.11,4.48-4.06,5.5-2.7,13-.6,19.05,1.63,5.4,5.83,10.74,11.81,11.08,2.02.25,5.98-1.26,4.6-3.84,1.27,1.61-.56,3.4-2.04,4.03-1.62.77-3.5.64-5.17.11-6.98-2.16-9.89-9.51-11.32-16.03-1.06-4.92-1.09-10.65,2.12-14.85,3.2-3.96,8.97-6.4,13.95-4.73,6.58,2.48,9.98,9.48,12,15.76h0Z"/>
              <path class="cls-1" d="M38.8,108.39s-6.02-3.84-6.96-12.1c-.94-8.26,6.15-11.1,6.15-11.1"/>
              <path class="cls-8" d="M64.89,105.77c-4.93-3.07-10.92-3.48-16.58-3.86,5.64-.67,12.19-.11,16.58,3.86h0Z"/>
            </g>
            <path class="cls-8" d="M127.33,40.48c2.32.27,4.25,1.91,5.75,3.61,4.54,5.35,5.52,12.83,4.93,19.61-.06-2.28-.26-4.55-.59-6.79-.92-6.22-3.61-14.17-10.1-16.42h0Z"/>
          </g>
          <g>
            <g>
              <g>
                <path class="cls-6" d="M2.27,29.9c.26-.56.34-1.2.27-1.82-.27-2.29-.56-7.95,2.52-10.92,2.78-2.67,5.61-3.06,7.03-3.05.58,0,1.14-.17,1.62-.53.53-.4,1.36-.88,2.37-1.05.5-.09.98-.28,1.38-.63,1.28-1.09,4.44-3.3,8.08-2.42,2.86.69,4.37,2.16,5.13,3.23.49.69,1.18,1.16,1.96,1.25,1.66.18,4.61,1.08,6.97,4.97.56.91,1.5,1.45,2.49,1.39,2.69-.16,8.08.03,11.76,3.57.73.7,1.75.91,2.68.6,1.98-.67,5.39-1.62,8.02-1.24,2.37.35,4.4,1.48,5.64,2.33.8.54,1.77.65,2.63.24,1.57-.76,4.47-1.79,8.39-1.65,3.52.13,5.63.72,6.78,1.2.79.32,1.65.24,2.39-.22,1.89-1.18,5.91-3.06,11.29-2.23.73.11,1.48-.11,2.07-.6,1.61-1.31,5.2-3.72,9.59-3.32.8.07,1.59-.2,2.19-.79,1.27-1.24,3.79-3.21,7.1-3.38.91-.05,1.76-.55,2.26-1.4,1.35-2.28,4.65-6.44,10.76-6.34.79.01,1.56-.31,2.11-.94,1.1-1.26,3.36-3.23,6.66-3.31,2.8-.07,4.33.63,5.13,1.23.58.44,1.29.61,1.99.51,1.86-.26,5.44.14,7.7,6.16.18.48.47.9.84,1.21,1.01.85,3.1,3.23,3.64,8.63.4,4-.41,6.18-1.22,7.33-.61.87-.81,2-.48,3.05.8,2.55,1.47,7.57-2.13,14.16-.45.83-.54,1.84-.24,2.75.74,2.23,1.68,7.17-.71,14.52-.28.85-.2,1.78.19,2.57,1.27,2.58,3.73,9.09,1.58,17.44-.24.93-.11,1.94.4,2.72.97,1.46,2.42.16,2.68,6.93.05,1.22.72,2.31,1.74,2.78,1.99.92,5.17,3.1,6.34,7.97,1.14,4.75-.07,7.67-1.06,9.13-.56.83-.68,1.94-.35,2.92.86,2.56,2.18,7.38,1.31,10.91-.71,2.87-2.02,4.62-3.01,5.6-.74.72-1.09,1.8-.93,2.87.31,2.08.46,5.6-1.21,8.78-1.79,3.4-5.06,4.5-6.9,4.86-.83.16-1.55.72-1.96,1.53-1.35,2.65-5.03,8.18-11.9,7.46-.92-.1-1.83.35-2.41,1.15-1.4,1.94-4.44,5.25-9,5.57-4.22.3-7.14-.81-8.66-1.61-.74-.39-1.58-.42-2.34-.07-1.2.55-3.45,5.65-7.04,4.68-3.44-.94-5.5-2.58-6.62-3.78-.68-.73-1.63-1.03-2.55-.8-.67.17-1.59.25-2.76.03-1.78-.33-3.42,1.26-3.34,3.25.08,2.15-.32,4.7-1.93,7.14-.56.85-.71,1.96-.37,2.94.64,1.84,1.39,5.17.66,9.49-1.13,6.74-5.67,9.59-6.7,16.11-.49,3.07-.67,5.28-.74,6.75-.07,1.54-1.12,2.78-2.49,2.98-1.56.23-3.72.31-6.04-.3-1.33-.35-2.26-1.7-2.2-3.21.11-2.36.07-6.07-.9-9.07-1.55-4.8-6.08-8.57-7.42-19.88-1.11-9.33.73-16.94,1.41-19.33.15-.51.17-1.05.07-1.58-.54-2.98-1.88-13.5,4.8-18.96,6.59-5.38,14.41-1.88,16.74-.62.45.24.94.35,1.44.31,2.03-.14,7.71-.04,11.64,4.91.66.83,1.68,1.2,2.65.98,2.26-.51,6.47-5.54,10.12-3.11.85.57,1.91.59,2.79.08,2.01-1.16,5.9-2.83,10.48-1.84,1.04.23,2.12-.19,2.78-1.12,1.34-1.88,4.03-4.79,8.19-5.37,1.19-.16,2.12-1.18,2.38-2.47.35-1.76,1.21-4.18,3.31-6.2.71-.68,1.06-1.69.97-2.72-.12-1.24-.17-3.03.12-4.96.17-1.16-.21-2.34-1.05-3.05-1.54-1.3-3.82-3.88-4.56-8.24-.11-.63-.39-1.21-.81-1.65-1.48-1.55-4.84-5.78-4.28-11.69.43-4.52.94-2.45,1.28-3.73.2-.76.15-1.56-.17-2.27-.98-2.16-2.8-7.17-1.35-12.21.24-.83.18-1.72-.19-2.48-1.03-2.14-2.77-7.04-.85-13.01.21-.66.21-1.37.01-2.03-.69-2.3-1.93-8.08,1.28-12.95.54-.82.64-1.89.33-2.84-.27-.81-.57-1.86-.8-3.03-.36-1.85-2.14-2.96-3.74-2.28-1.11.47-2.42.77-3.79.6-.84-.11-1.67.16-2.3.79-2.01,2.03-6.78,6.07-12.28,5.09-.69-.12-1.39.02-1.98.42-2.74,1.87-10.94,6.81-17.53,3.91-.73-.32-1.54-.33-2.26.02-2.55,1.25-8.89,3.83-13.98,1.36-.58-.28-1.23-.34-1.84-.16-2.31.68-8.28,1.97-13.37-.86-.54-.3-1.16-.38-1.75-.25-2.29.5-8.31,1.35-13.6-1.81-.78-.46-1.69-.55-2.5-.17-1.77.82-5.11,2.06-8.36,1.51-3.03-.52-5.31-2.45-6.55-3.77-.65-.69-1.57-1-2.46-.8-.38.08-.82.16-1.32.2-1.52.12-2.71,1.52-2.67,3.2.03,1.57.24,3.64.83,6.14.18.75.11,1.54-.2,2.23-.77,1.67-1.79,5.74.92,13.22.27.73.27,1.55.02,2.29-.96,2.74-3.03,10.16-.95,18.43.2.79.09,1.64-.27,2.36-.88,1.76-2.41,5.43-2.48,9.73-.07,4.03,1.69,6.69,2.87,8.02.61.69.92,1.63.81,2.59-.23,2.14-.34,5.91,1.37,7.89,2.47,2.86,7.53,2.97,8.66,11.08,1.01,7.24-6.11,10.75-9.93,10.77-.75,0-1.47.29-1.99.88-1.42,1.58-4.81,4.3-10.66,2.97-7.48-1.7-10.68-10.71-10.76-18.11-.01-.96-.39-1.86-1.07-2.46-1.48-1.28-3.94-4.19-4.23-9.59-.3-5.43.47-8.85.95-10.42.21-.69.19-1.43-.04-2.11-.82-2.42-2.42-8.43-.7-14.62.18-.64.14-1.32-.06-1.95-.83-2.55-2.67-9.47-.17-14.9.31-.68.4-1.46.24-2.19-.64-2.82-1.99-10.06-.31-14.78.27-.75.29-1.57.02-2.32-1.14-3.08-3.68-11.64-.03-19.33Z"/>
                <path class="cls-7" d="M27.43,136.96c-.15-.19-.29-.39-.44-.58-3.07-3.84-10.07-8.99-10.42-16.31,0-.04-.01-.07-.03-.11l-2.29-4.63s-.03-.09-.03-.15c.05-.64.33-5.2-1.5-9.34-.02-.06-.03-.11-.02-.17.2-.85,1.7-7.77.02-12.89-.02-.07-.02-.14.01-.2.26-.56,1.53-3.48,1.17-7.34-.35-3.72-1-5.43-1.17-5.83-.03-.06-.03-.13,0-.19.24-.78,1.75-5.92,1.75-9.31,0-3.2-.67-5.03-.85-5.46-.03-.06-.03-.13,0-.2.18-.52.96-2.98.53-5.36-.42-2.32-1.56-4.31-1.87-4.81-.05-.08-.05-.17-.02-.25.29-.71,1.63-4.24,1.56-9.19-.07-4.51-.48-7.38-.68-8.63-.03-.2,1.41.81,1.58.88,1.5.61,2.26.52,2.23.65-.39,1.7-2.32,11.26.95,17.85.03.06.04.13.02.19-.21.81-1.53,6.53.94,13.19.03.09.02.19-.04.27-.55.69-3.25,4.55-1.46,12.9,0,.05,0,.09,0,.14-.19.65-1.67,6.1.54,11.12.03.07.03.14,0,.21-.3.82-2.29,6.37-2.06,11.01.22,4.61,1.33,7.33,1.51,7.74.02.04.02.08.02.12-.03.54-.14,4.27,1.99,7.49.03.04.04.08.04.13.04.55.41,4.27,3.47,7.91,3.32,3.94,10.47,12.57,9.23,14.28-.94,1.3-2.64-2.5-4.68-5.13Z"/>
                <path class="cls-7" d="M13.03,14.18s4.46.71,5.92,4.91c.12.34.36.61.67.72,1.39.48,5.3,2.17,6.84,6.34.18.49.62.8,1.1.76,1.36-.11,4.28-.03,7.81,1.9,3.36,1.83,4.93,3.67,5.59,4.64.27.4.74.57,1.18.44,1.85-.56,6.75-1.51,11.23,2.24.28.23.63.32.96.23,1.48-.42,5.79-1.5,8.48-.57,2.3.79,3.81,1.74,4.52,2.24.3.21.66.26.99.12,1.34-.54,5.01-1.88,8.69-1.88s6.28,1.23,7.38,1.81c.33.17.71.16,1.03-.04,1.1-.7,3.79-2.27,6-2.34,2.25-.06,4.58.53,5.48.78.25.07.5.04.74-.08,1.68-.88,8.91-4.46,13.63-3.98.23.02.45-.02.65-.14,1.38-.86,7.3-4.33,11.88-3.75.43.05.84-.19,1.06-.59,1.03-1.87,4.26-6.71,10.02-6.31.36.03.72-.13.95-.44,1.11-1.47,4.72-5.78,9.66-7.01,2.99-.74,5.31-.87,6.88-.82.73.03,1.27-.73,1.11-1.52,0-.02,0-.04-.01-.06-.13-.72-.82-1.13-1.44-.89-.98.38-2.36.78-4.05.9-3.44.24-5.93-.08-8.19,1.38-2.27,1.46-2.78,4.46-5.12,5.27-1.81.62-4.39,1.11-5.48,1.29-.32.06-.6.26-.77.57-.69,1.24-2.76,4.52-5.82,5.43-3.39,1.01-7.37,1.83-8.19,2-.1.02-.19.05-.29.11-.93.53-6.55,3.6-10.69,3.9-3.71.27-5.9.31-6.58.32-.14,0-.28.03-.41.09-.96.46-5.5,2.37-10.33.51-.29-.11-.6-.1-.88.05-1.07.59-4.21,2-9.16,1.61-4.4-.34-6.38-1.13-7.17-1.56-.28-.15-.6-.18-.89-.06-.76.32-2.61.83-6.29.49-3.77-.35-5.54-1.05-6.22-1.4-.24-.12-.5-.16-.75-.09-.78.22-2.79.54-6.2-.37-3.4-.91-4.91-2.92-5.45-3.86-.19-.33-.51-.53-.86-.56-1.8-.15-7.15-.74-10.06-2.65-2.96-1.95-5.85-5.11-6.71-6.08-.16-.19-.37-.31-.6-.35-.75-.14-2.55-.57-3.46-1.65-1.17-1.38-3.3-3.59-4.83-3.7-1.53-.11-3.53,1.71-3.53,1.71Z"/>
                <path class="cls-7" d="M151.22,25.04c.55,1.22,1.95,4.73,1.32,7.43-.58,2.45-2.52,4.82-3.48,5.88-.31.34-.38.87-.16,1.3.67,1.29,1.93,4.09,1.7,6.37-.23,2.3-1.3,4.86-1.81,6-.16.35-.14.78.07,1.1.62.97,1.85,3.28,1.75,6.29-.11,3.21-1.06,6.9-1.45,8.26-.09.33-.04.69.15.97.58.88,1.81,3.1,1.94,6.37.14,3.43-1.31,7.28-1.91,8.71-.15.35-.12.77.09,1.09.62.96,1.91,3.08,2.42,4.95.54,1.94.5.15.46,1.3-.01.33.11.64.34.86.71.68,2.26,2.32,2.92,4.07.61,1.62.79,3.48.84,4.43.02.4.24.75.57.91,1.39.71,5.1,2.71,6.82,4.7.11.13.3,0,.24-.17-.28-.87-.8-2.27-1.56-3.61-1.18-2.1-5.09-4.06-5.26-8.71,0-.21-.06-.41-.17-.58-.75-1.2-3.89-1.88-3.81-6.27.07-3.93.57-6.37.77-7.22.05-.23.04-.46-.03-.67-.33-.94-1.22-3.82-1.43-7.71-.21-3.83.64-6.92.98-8.01.08-.26.08-.55-.02-.8-.41-1-1.44-3.92-1.65-8.43-.2-4.46.51-7.01.82-7.89.08-.23.09-.48.03-.71-.32-1.14-1.18-4.67-.32-7.03,1.04-2.85,2.32-4.8,2.41-7.29.08-2.2-.91-6.41-1.73-7.64-.05-.07-.18.31-.74.81-.57.5-1.13.8-1.07.94Z"/>
                <path class="cls-7" d="M119.59,149.18c1.79.04,5.02-.04,6.62-.99.16-.1.36-.09.5.05.8.81,3.43,3.11,6.48,2.05,3.06-1.06,4.48-3.76,4.86-4.62.07-.16.22-.26.39-.25,1.25.08,6.41.3,8.12-1.58,1.95-2.15,2.76-7.17,3.8-7.64.85-.39,3.11-.36,3.89-.33.16,0,.31-.09.38-.26.34-.77,1.38-3.01,2.52-4.43.33-.41.92.03.7.52-.76,1.65-1.83,4.14-2.19,5.9-.05.26-.3.41-.53.33-.81-.29-2.56-.69-3.59.74-1.37,1.91-.79,5.89-4.6,7.73-3.81,1.83-5.75.16-7.77,1.83-2.01,1.67-3.95,4.62-7.84,4.3-3.09-.25-4.54-1.87-5-2.52-.11-.16-.29-.22-.46-.15-.94.36-3.71,1.53-6.5.19-.39-.19-.18-.87.24-.86Z"/>
                <g>
                  <path class="cls-14" d="M15.06,57.09c-.36-.91-.92-2.26-1.47-3.27-.02-.04-.03-.09-.01-.14.11-.35.59-2,.95-4.03.04-.2.29-.18.31.02l.53,7.33c.01.2-.23.26-.3.08Z"/>
                  <path class="cls-14" d="M16.52,63.84s.23,2.6,1.07,4.33c.1.22.12.47.02.69-.29.68-.92,2.28-1.32,4.05-.53,2.35-.35,4.32-.35,4.32,0,0-.28-2.84-.53-3.19-.25-.36-.51-.23-.51-.23,0,0,.83-2.76.65-4.73-.15-1.55-.74-3.6-.98-4.41-.06-.21-.04-.44.06-.63.15-.3.33-.97.37-1.83.1-1.75.05-2.66.05-2.66,0,0,.42,3.64.6,4.1.18.46.46,1.14.46,1.14l.41-.95Z"/>
                  <path class="cls-14" d="M15.77,88.74s.14,2.63.89,4.11c.1.2.14.43.06.65-.27.81-.97,2.9-1.34,4.34-.47,1.82-.47,3.2-.47,3.2,0,0-.08-2.77-.29-3.23-.11-.25-.24-.46-.32-.6-.08-.12-.12-.27-.11-.42.01-.63.02-2.37-.2-3.61-.05-.29.05-.59.28-.75.3-.22.69-.56.86-1,.29-.75.65-2.68.65-2.68Z"/>
                  <polygon class="cls-14" points="15.52 111.8 15.2 115.08 17.29 118.97 15.83 113.94 15.52 111.8"/>
                  <path class="cls-14" d="M23.21,20.2s2.14,1.33,2.97,2.6c.83,1.27,1.22,2.54,1.22,2.54,0,0,2.21-.2,3.57.2,1.35.4,2.6.98,2.6.98l-2.79-1.99s-1.61.06-2.4-.52c-.78-.58-3-4.1-3.65-4.65-.65-.55-3.93-.23-3.93-.23l2.4,1.07Z"/>
                  <path class="cls-14" d="M38.99,29.13s1.97,1.61,2.95,3.34c0,0,1.79-.68,4.24-.28,0,0-1.07-.78-1.92-1.39-.85-.62-2.01-2.85-2.01-2.85,0,0-.41,1.48-.95,1.48s-2.31-.3-2.31-.3Z"/>
                  <path class="cls-14" d="M65,35.03s1.7.63,2.55,1.43c.14.14.34.17.52.1.78-.31,2.85-1.1,3.88-1.2l-1.64-.69c-.13-.06-.27-.05-.4,0-.47.23-1.67.77-2.18.72-.64-.06-2.73-.36-2.73-.36Z"/>
                  <path class="cls-14" d="M85.1,36.9s2.95-1.9,4.93-1.97c1.99-.08,3.56,0,3.56,0l-.96-.76s-2.71.38-4.52,0c-1.82-.38-2.05-.42-2.05-.42,0,0-.14,1.82-.62,1.94-.48.11-3.29.11-3.29.11l2.95,1.1Z"/>
                  <path class="cls-14" d="M133.12,19.83c.17-.03,2.84-.72,4.04-1.86l-2.19,2.66s-.79-.34-2.53,0-2.77,1.11-2.77,1.11c0,0,1.03-1.49,3.46-1.91Z"/>
                  <path class="cls-14" d="M150.37,67.76s.91-3.88,1.01-5.73c.09-1.85-.13-3.25-.13-3.25l1.26,3.84s-.79,2.27-1.04,3.35c-.25,1.08-.03,4.99-.03,4.99,0,0-.54-2.09-1.07-3.21Z"/>
                  <polygon class="cls-14" points="151.03 48.73 149.77 52.64 150.78 54.6 150.72 51.67 151.03 48.73"/>
                  <path class="cls-14" d="M151.72,80.44l-1.32,3.88s1.2,1.47,1.32,1.99c.13.52.66,2.03.66,2.03v-3.67s-.57-.63-.66-1.47c-.09-.84,0-2.76,0-2.76Z"/>
                  <path class="cls-14" d="M153.77,91.56s1.42,1.43,1.89,2.3c.47.87.69,2.23.69,2.23v-2.83s-1.42-1.61-1.92-2.41c-.5-.8-.98,1.62-.98,1.62l.32-.92Z"/>
                </g>
              </g>
              <path class="cls-4" d="M137.98,34.79s5.9-1.99,6.71-8.47c0,0,5.1.16,7.21-1.97,1.19-1.21,1.82-2.02,2.13-2.5.13-.2.36-.13.5.07.87,1.25,2.59,2.99,5.36,2.6"/>
              <path class="cls-3" d="M32.11,40.87s-5.77,1.32-10.31-3.67c0,0-3.22,1.05-6.36,0-2.35-.79-3.45-2.61-3.86-3.47-.13-.27-.37-.45-.65-.48-1.11-.08-3.89-.68-4.58-4.53"/>
              <path class="cls-3" d="M101.13,165.96s.46-2.74-.34-5.99c-.15-.61-.1-1.25.11-1.84.35-.95.82-2.6.82-4.65,0-4.21-2.69-6.98-2.69-6.98"/>
            </g>
            <g>
              <path class="cls-11" d="M18.36,39.49c.68.02,1.73-.01,2.59-.36.26-.11.55-.04.76.15.83.76,3.01,2.56,5.49,3.15.41.1.68.52.62.98-.09.67-.18,1.67-.11,2.71.1,1.5.61,3.75.8,4.55.05.19.03.38-.04.56-.32.8-1.22,3.25-1.22,5.49,0,1.39.29,3.34.58,4.91.07.37-.39.55-.55.21-1-2.2-2.4-5.16-2.86-5.58-.51-.47-2.75.56-4.12,1.27-.41.21-.86-.22-.73-.7l.38-1.41c.07-.25.03-.51-.1-.73-.45-.78-1.54-2.92-2.18-6.3-.61-3.23-.31-6.62-.12-8.13.06-.45.4-.77.81-.76Z"/>
              <path class="cls-11" d="M2.88,46.43c-.09-.39.36-.65.6-.34.96,1.27,2.7,3.25,4.58,3.77,1.73.49,3.03.24,3.77-.02.28-.1.52.21.42.51l-1.19,3.29c-.04.1-.03.21,0,.3l1.11,2.63c.16.37-.26.72-.54.45-1.09-1.05-2.62-2.44-3.39-2.77-.97-.41-3.65-.13-4.89.03-.27.04-.47-.28-.35-.55.4-.88,1.04-2.46.94-3.34-.11-.88-.74-2.6-1.06-3.98Z"/>
              <path class="cls-11" d="M3.83,63.91s1.25,2.88,3.06,3.47c1.81.59,5.62-2.76,5.62-2.76,0,0,.57.67.87,2.17,0,0-2.08.13-3.4,1.17-1.32,1.05-2.68,3.39-2.68,3.39,0,0-2.45-2.09-2.79-2.13-.34-.04-1.64,1.17-1.64,1.17,0,0,1.11-2.72,1-3.85-.11-1.13-.72-3.85-.72-3.85l.68,1.21Z"/>
              <path class="cls-11" d="M3.11,79.68s1.32,3.14,2.34,3.85c1.02.71,4.23.59,4.57.46s2-4.31,2-4.31c0,0,.6,2.62.79,4.4.19,1.78,0,3.54,0,3.54,0,0-.79-1.88-1.43-2.17-.64-.29-5.74-.63-6.23-.46-.49.17-1.77,1.71-1.77,1.71,0,0,.91-2.01.53-3.05-.38-1.05-1.21-3.47-.79-3.97Z"/>
              <path class="cls-11" d="M4.13,98.45s1.17,2.47,2,2.76c.83.29,4.15,1.55,4.6,1.3.45-.25,1.96-1.48,1.96-1.48,0,0-1.21,4.03-1.09,4.57.11.54,1.09,2.88,1.09,2.88,0,0-2.3-3.05-2.91-3.6-.6-.54-3.7-1.55-4.53-1.25-.83.29-1.59,1.8-1.59,1.8,0,0,1.13-3.5,1.02-4.4s-.57-2.58-.57-2.58Z"/>
              <path class="cls-11" d="M5.73,118.97s2.09,2.16,3.64,2.45c1.55.3,6.35-.54,6.35-.54,0,0,.13,2.8.8,4.28.67,1.48,2.18,3.15,2.18,3.15,0,0-4.53-3.64-5.73-3.94-1.2-.3-4.22,1.43-4.22,1.43,0,0,.8-2.41-.18-3.59-.98-1.18-2.84-2.35-2.84-3.24Z"/>
              <path class="cls-11" d="M3.78,25.52s.62,2.04,1.51,2.42c0,0,.4,3.92,1.95,5.15s3.33,1.23,3.33,1.23c0,0,.52,1.46,1.65,2.36,0,0,.52,4.03.43,6.84,0,0-1.91-3.6-3.24-4.46-1.33-.86-7.55-1.25-7.55-1.25,0,0,.18-3.74,1-5.66.82-1.92,1.31-3.2,1.31-3.2,0,0-.84-3.44-.4-3.44Z"/>
              <path class="cls-11" d="M17.67,76.72s1.56,4.29,2.59,5.02c1.03.73,7.33,1.91,7.33,1.91,0,0-7.41,0-8.07.23-.66.23-1.85,2.05-1.85,2.05l.65-4.01s-.98-4.01-.65-5.2Z"/>
              <path class="cls-11" d="M18.7,113.52s.16,3.19,1.85,4.88c0,0,.54,4.7,2.3,7.02,1.77,2.33,4.61,4.92,6.01,6.52,1.4,1.6,2.68,4.79,2.68,4.79,0,0,3.83-.32,6.05-2.87,2.22-2.55,2.06-6.79,1.03-9.16-1.03-2.37-7.98-5.88-8.73-7.93-.74-2.05.21-7.93-.41-8.94-.62-1-2.55-3.42-2.88-5.24,0,0-.49,3.37.16,4.92.66,1.55,1.61,2.92,1.44,4.01-.16,1.09-1.23,1.96-1.52,2.92-.29.96.29,2.83-.37,3.65-.66.82-3.13,1.73-3.91.87-.78-.87-.7-2.42-.7-2.42,0,0-2.37-.32-3-3.01Z"/>
              <path class="cls-11" d="M23.99,16.34s1.86.54,3.6-.08,2.25-1.1,2.37-1.5c.13-.4-.3-1.38-.3-1.38l.97,1.36s2.17.34,3.44.88c0,0-2.19.03-2.83.28s-2.35.88-2.7,1.41c-.36.54-.1,3-.1,3,0,0-1.66-2.66-2.12-2.91-.46-.25-2.04-.34-2.32-1.05Z"/>
              <path class="cls-11" d="M16.92,18.57s.69,1.16.26,2.35-2.81,4.92-2.81,4.92c0,0,3.34-2.85,4.39-2.91,1.05-.06,4.69,1.02,4.69,1.02,0,0-1.33-2.06-2.5-2.66s-2.07-.06-2.42-.99c-.36-.93-.64-1.87-1.3-2.71-.66-.85-1.76-1.33-1.76-1.33,0,0,1.14,1.49,1.45,2.32Z"/>
              <path class="cls-11" d="M28.49,38.06l5.99-1.11c1.11-.21,2.24.21,2.99,1.13,1.23,1.5,3.4,3.64,5.92,3.89,3.93.38,6.56-1.52,7.98-1.64,1.43-.13,6.78,3.85,12.26,3.85,0,0-3.99.44-7.41-.63-3.42-1.07-3.14-1.77-5.13-1.39-2,.38-6.44,2.84-9.63,1.52-3.19-1.33-5.3-4.33-6.5-4.6-.94-.21-4.87.67-6.57.05-.48-.18-.4-.96.1-1.06Z"/>
              <path class="cls-11" d="M85.9,45.83c-.26-.15-.14-.6.15-.56,1.13.16,3.13.14,6.05-.99,2.38-.92,3.73-2.21,4.49-3.28.66-.94,1.86-1.13,2.75-.46,1.48,1.11,3.69,2.37,5.94,2.22,3.95-.26,8-5.12,10.28-5.33,2.29-.21,6.47,1.05,8.85,0,2.38-1.05,3.81-5.48,5.76-5.59,1.95-.11,2.95,1.27,6,.32,3.05-.95,4.52-8.38,6.09-8.86,1.03-.31,3.45.1,5,.42.28.06.28.51,0,.56l-3.99.7s-.19,4.97-4,7.49c-3.81,2.53-6.09.95-7.76,1.79-1.67.84-2.69,3.69-6.7,5.11-4.01,1.42-5.52.16-7.29.79-1.77.63-5.63,3.64-9.58,4.48-3.95.84-7.81-.9-9.09-.74-1.16.14-9.28,4.05-12.96,1.92Z"/>
              <path class="cls-11" d="M141.82,34.39c.16-.05,3.81-2.97,3.82-6.98,0,0,3.13.03,5.19-.95,0,0,1.69,3.39.05,6.92,0,0-.53-1.59-.81-1.82-.28-.23-3.22,1.03-3.52,1.28-.3.26-2.15,2.95-2.18,3.9s-.65,4.03-.65,4.03c0,0-.63-3.62-.69-3.95-.07-.33-1.2-2.44-1.2-2.44Z"/>
              <path class="cls-11" d="M154.51,23.74s3.57,2.41,5.72,2.21c0,0-2.36,2.67-2.86,3.33-.5.67-2.21,3.74-2.19,3.59.02-.15.88-3.05.42-4.95-.46-1.9-1.09-4.18-1.09-4.18Z"/>
              <path class="cls-11" d="M141.13,50.03c0-.31.4-.39.49-.09.32,1.03.84,2.38,1.43,2.59.71.25,3.38-1.35,4.77-2.22.22-.14.46.13.34.38-.39.75-.82,1.74-.67,2.14.26.68,1.76,2.82,2.06,4.33.18.88.22,2,.23,2.78,0,.28-.32.38-.46.15-.81-1.38-2.53-4.15-3.42-4.59-1.19-.58-2.68-.15-2.9.24-.22.39-.92,3.04-.92,3.04,0,0,.48-2.26.04-3.48-.35-.97-1.01-3.38-.99-5.28Z"/>
              <path class="cls-11" d="M153.3,43.89l.54,1.93c.02.06.02.11,0,.17l-.99,4.41s.88-3.14,1.93-3.23c.76-.07,2.38.52,3.22.86.22.09.43-.13.37-.38-.14-.61-.33-1.51-.25-1.79.07-.23.47-.94.82-1.55.16-.27-.1-.59-.36-.46-.76.4-1.81.87-2.4.84-.66-.03-1.77-.7-2.48-1.16-.22-.15-.49.09-.42.37Z"/>
              <path class="cls-11" d="M143.78,83.41c-.26-.54.35-1.06.76-.65.34.34.67.62.92.68.63.16,1.83-.23,2.26-.38.11-.04.2-.12.26-.23l1.06-1.9s-1.24,2.97-1.02,3.45,1.77,2.11,2.35,4.27c.58,2.17.67,3.2.67,3.2,0,0-1.55-4.28-3.37-4.32-.36,0-1.33.56-2.07,1.02-.35.22-.77-.1-.72-.55.11-.84.17-1.94-.11-2.6-.24-.57-.64-1.26-1-2Z"/>
              <path class="cls-11" d="M154.28,75.66l1.2,3.44s-1.11,2.76-1.2,5.61c-.04,1.21-.04,2.15-.04,2.83,0,.32.4.41.51.12.55-1.43,1.41-3.62,1.6-3.88.17-.24,1.28-.17,2.11-.08.41.05.76-.32.74-.77-.02-.33.02-.71.19-1.07.44-.93,1.07-3.84,1.11-4.77.04-.93,0-2.66,0-2.66,0,0-1.07,4.03-1.87,4.53s-.69,1.03-1.25.69-3.1-3.99-3.1-3.99Z"/>
              <path class="cls-11" d="M102.56,151.18c-.18-.82.65-1.45,1.26-.95,1.33,1.08,3.04,2.25,4.35,2.4,1.7.19,3-.1,3.65-.3.29-.09.6,0,.81.25,1.05,1.24,4.31.25,6.92.49,2.18.2,3.75-.55,4.51-1.03.32-.2.72-.14.98.15,1.14,1.28,4.37,4.35,8.54,3.44,3.83-.83,5.22-3.87,5.68-5.42.14-.48.61-.72,1.03-.55,1.38.55,4.36,1.39,7.65.13,3.46-1.33,4.86-4.13,5.33-5.38.13-.36.45-.58.8-.55,1.71.14,6.56.16,8.24-3.95,1.49-3.65.82-6.89.34-8.4-.15-.48.08-1,.52-1.15,1.5-.52,4.6-1.85,6.41-4.53.23-.34.71-.09.6.31-.38,1.38-1.29,3.33-3.44,5.34-.24.22-.35.57-.28.9.39,1.74,1.3,7.3-1.84,10.55-3.76,3.88-5.3,2.65-7.44,4.55-2.14,1.89-1.88,4.45-5.47,6.16-3.59,1.71-6.76.57-8.47,1.52-1.71.95-1.7,4.16-7.15,6.23-5.44,2.07-9.36-1.68-12.01-1.49-2.65.19-4.53,6.1-8.47,4.4-3.93-1.71-5.05-4.07-7.35-4.07h-2.28s-.04,0-.06,0l-2.87.24c-.32.03-.62-.16-.77-.47l-.3-.61c-.14-.28-.13-.62.02-.9.49-.9,1.42-3.28.56-7.29Z"/>
              <path class="cls-11" d="M76.45,148.42s-.32,4.78.73,7.37c1.05,2.59,1.53,4.11,3.79,5.81,2.26,1.7,9.43,2.5,11.37,2.32.74-.07,1.77-.43,2.75-.84.76-.32,1.37.72.82,1.37-.31.37-.6.69-.83.9-.97.89-5.35,3.13-8.72,3.22-3.37.09-6.92-2.05-8.13-.98-1.21,1.07-2.35,6.16-1.82,7.77.53,1.61,2.79,8.04,5.05,9.47,2.26,1.43,7.34,1.79,10,.63,1.73-.75,4.24-2.9,5.79-4.32.54-.49,1.34.01,1.24.77-.15,1.12-.46,2.6-1.06,4.23-1.29,3.5-3.39,5.47-4.43,7.97-.33.79-.68,1.86-1,2.95-.25.85-1.36.74-1.48-.15-.14-1.12-.38-2.15-.75-2.71-1.13-1.7-5.32-5.18-6.93-5-.95.11-1.82,1.3-2.37,2.26-.31.53-1.01.51-1.3-.03-1.19-2.28-3.58-7.41-4.47-13.22-1.21-7.86,1.69-19.02,1.69-19.92s-2.1-6.43.08-9.87Z"/>
              <path class="cls-11" d="M155.79,116.94l2.49,2.5c.42.42.48,1.12.15,1.63-.47.71-1.09,1.75-1.33,2.64-.31,1.11-.56,3.83-.67,5.27-.04.54-.4.98-.88,1.08-.87.19-2.25.57-3.07,1.27-.11.09-.21.19-.32.29-.79.77-2.02-.09-1.77-1.23.32-1.47.81-2.94,1.55-3.79,1.07-1.23,1.75-2.04,2.12-2.5.24-.29.33-.68.26-1.06-.2-1.05-.55-3.33-.34-5.35.1-.99,1.17-1.44,1.83-.77Z"/>
              <path class="cls-15" d="M3.3,88.82s2.04-2.73,2.72-2.87c.68-.14,4.46.42,4.97.85.51.42,1.06,4.75.81,5.41-.25.66-1.74,2.99-1.74,2.99,0,0,1.27,4.12.25,4.82-1.02.71-5.31-.66-5.99-2.12-.68-1.46-1.88-6.63-1.03-9.08Z"/>
              <path class="cls-15" d="M3.23,73.88s-1-3.22.85-2.53c1.85.69,2.28,1.64,2.28,1.64,0,0,2.23-4.1,3.8-2.68,1.57,1.42,1.66,5.57,1.09,6.62-.57,1.05-2.89,4.78-3.82,4.62-.93-.16-2.4-1.47-2.97-2.68s-1.23-4.99-1.23-4.99Z"/>
              <path class="cls-15" d="M3.66,59.55s-.71-3.48.38-3.8,3.22-.79,3.91-.21c.69.58,3.11,4.41,2.82,5.62s-2.56,4.36-4.03,3.68c-1.47-.68-3.13-3.96-3.08-5.29Z"/>
              <path class="cls-15" d="M2.87,39.93s3.84-.63,5.26,0c1.41.63,3.64,4.95,3.45,6.02-.19,1.07-3.04,2.97-4.01,2.49-.97-.47-4.01-3.36-4.34-4.36-.33-1-.36-4.15-.36-4.15Z"/>
              <path class="cls-15" d="M4.75,21.75s1.42-4.1,3.27-4.92c1.85-.81,4.55-1.61,5.69-.58,1.14,1.03,1.9,2.64,1.76,4.04s-3.88,8.6-3.88,8.6l1.44-.18s4.53-4.2,5.88-4.19c1.35,0,4.49,1.13,5.08,1.99.59.86.45,3.06.45,3.06,0,0,4.41-1.52,6.07-.95s5.74,3.47,5.98,3.99c.24.53-1,1.33-3.32,2.24-2.32.91-4.84,2.01-6.26,1.33-1.42-.68-3.45-2.79-3.45-2.79,0,0-3.02,2.59-6.14,1.11-3.12-1.48-3.75-3.11-3.75-3.11,0,0-1.93.32-3.03-.53-1.09-.84-2.47-4.38-2.47-4.38,0,0-1.9.26-2.47-.99-.57-1.25-.85-3.77-.85-3.77Z"/>
              <path class="cls-15" d="M34.07,16.83s2.42.7,3.51,2.2c1.09,1.5.05,1.98,1.76,2.61,1.71.63,6.03-.42,9.16.84,3.13,1.26,5.65,3.78,7.4,3.99,1.76.21,5.55-2.05,8.21-1.63,2.66.42,6.36,2.15,5.6,3.1-.76.95-7.15-.94-7.39-.94s-4.11,3.73-8.08,2.89c-3.98-.84-6.73-4.2-6.73-4.2,0,0-2.28.47-3.46-.16-1.19-.63-2.13-1.68-2.13-1.68,0,0-6.07.58-8.87-.84-2.8-1.42-3.42-4.73-2.8-5.36.62-.63,3.84-.82,3.84-.82Z"/>
              <path class="cls-15" d="M20.21,12.45s3.18-1.63,5.22-1.26c2.04.37,3.82,2.68,3.6,3.1-.23.42-3.73,1.37-4.4.95-.67-.42-2.43-2.44-2.43-2.44,0,0-2.46.6-1.99-.35Z"/>
              <path class="cls-15" d="M40.85,35.99s4.16-.94,6.9-.38c2.74.56,8.08,2.62,8.08,2.62,0,0,4.33-1.2,6.48-.5,2.15.7,4.74,1.8,3.87,2.86-.86,1.05-5.5,1.23-7.81.79-2.31-.43-6.93-2.86-6.93-2.86,0,0-3.12,2.43-7.17,1.04-4.05-1.39-5.55-3.2-3.42-3.56Z"/>
              <path class="cls-15" d="M70.17,40.58s5.88-2.5,8.7-2.07c2.82.43,6.01,2.77,6.01,2.77,0,0,5.05-2.99,7.4-3.06,2.35-.07-5.15,6.15-7.4,6.04-2.25-.11-3.43-.79-3.43-.79,0,0-2.89,1.77-7.05.79-4.16-.98-6.63-2.79-4.23-3.69Z"/>
              <path class="cls-15" d="M90.8,27.39c.31-.35,6.4-3.32,8.89-3.22,2.48.09,3.89.88,3.89.88,0,0,4.2-4.17,6.67-3.91,2.47.26,3.76-.01,3.76-.01,0,0,4.61-3.64,6.93-3.9,2.32-.26,3.88,0,3.88,0,0,0,3.23-6.86,5.81-7.56,2.59-.69,6.08-.9,6.53.46.45,1.36-2.84,5.97-5.28,6.4-2.43.43-4.08.52-4.08.52,0,0-2.67,6-5.57,6.13-2.9.13-5.62,0-5.62,0,0,0-2.22,3.14-5.59,3.28-3.37.15-4.94-.46-4.94-.46,0,0-2.12,2.75-4.78,2.72-2.67-.03-4.47-.81-4.47-.81,0,0-7.84,3.74-11.21,2.69-3.37-1.04-6.13-4.2-2.36-4.14,3.77.06,7.53.93,7.53.93Z"/>
              <path class="cls-15" d="M115.58,32.88s4-2.34,6.27-2.09c2.27.25,3.84-1.14,5.57-3.14,1.73-2,3.99-4.38,5.99-4.36,2,.02,2.94,0,2.94,0,0,0,3.84-6.14,6.04-5.32,2.2.82-3.14,5.78-3.14,5.78,0,0-1.73,6.86-5.02,6.95-3.29.09-5.25-.24-6.12.1-.86.34-1.96,4.85-5.72,5.03-3.76.17-5.78-.49-5.78-.49,0,0-6.85,5.01-8.5,3.7-1.65-1.3,3.29-6.05,7.45-6.15Z"/>
              <path class="cls-15" d="M139.96,6.98s2.43-2.35,5.41-2.08c2.98.26,4.7,2.16,4.63,2.69-.08.53-6.87,3.01-8.18,2.55-1.31-.46-3.42-2.89-1.86-3.15Z"/>
              <path class="cls-15" d="M157.36,12.79s3.11,2.44,3.87,5.17c.76,2.73-1.75,4.82-2.85,4.38-1.1-.43-4.23-3.65-4.23-3.65,0,0-2.12,3.74-3.69,2.35-1.57-1.39,2.59-4.86,2.59-4.86,0,0,1.57-2.26,2.27-2,.71.26,1.02.96,1.02.96,0,0,.06-2.7,1.01-2.35Z"/>
              <path class="cls-15" d="M25.7,138.83s-5.14,2.81-8.94,1.01c-3.8-1.8-7.64-10.22-6.47-11.52,1.17-1.3,5.95,1.72,5.95,1.72,0,0,3.8.65,4.84,2.67,1.04,2.02.72,4.32.72,4.32,0,0,4.75.58,3.9,1.8Z"/>
              <path class="cls-15" d="M8.86,119.65c-.3-.22-2.6-1.48-3.38-4.26-.78-2.78-1.24-6.31-1.11-7.47.13-1.15,4.68-1.25,5.27-1.09.59.16.98,7.07.98,7.07,0,0,2.38,3.39,1.61,4.32-.77.94-2.67,1.94-3.37,1.42Z"/>
              <path class="cls-15" d="M19.92,111.8c.2-.5-3.12-4.96-2.31-8.85.81-3.89,2.39-9.28,2.32-9.57s-1.18-4.38-.79-5.76c.39-1.38,3.22-2.32,3.79-2.17s3.69,4.25,2.97,5.84c-.72,1.58-3.7,3.6-3.7,3.6,0,0,2.01,2.02,1.42,4.32-.59,2.31-1.88,3.96-1.88,3.96,0,0,4.03,5.69,3.96,7.64-.06,1.95-1.92,3.75-3.11,3.39-1.19-.36-2.68-2.39-2.68-2.39Z"/>
              <path class="cls-15" d="M21.35,79.68c-.16-.2-2.73-3.52-2.41-5.4.33-1.87,2.41-5.11,2.41-5.11,0,0-2.08-5.15-2.11-6.46-.03-1.32,2.28-5.28,3.69-4.49,1.41.79,1.28,7.64,1.28,7.64,0,0,2.34,2.45,2.6,4.47.26,2.02-2.02,6.92-2.02,6.92,0,0,1.12,1.08,1.21,2.16.09,1.08-3.57,1.68-4.66.28Z"/>
              <path class="cls-15" d="M77.82,145.18s2.99-6.28,7.13-7.26c4.14-.99,9.34,2.09,9.34,2.09,0,0,6.4-.58,8.87.81,2.47,1.39,6.35,3.31,4.98,4.82-1.36,1.51-3.93,2.09-4.88,1.45-.94-.64-4.78-4.01-4.78-4.01l-2.77.41-.16,3.25s3.04,5.17,2.78,7.96c-.26,2.79-2.2,6.92-5.56,6.97-3.36.06-10.96-.81-13.01-3.6-2.05-2.79-2.78-11.56-1.94-12.9Z"/>
              <path class="cls-15" d="M80.13,169.76s-2.15,3.25-1.73,5.17c.42,1.92,3.04,8.54,4.46,8.89,1.42.35,4.93.93,7.66-.58,2.73-1.51,6.4-3.78,5.77-6.25-.63-2.47-1.68-3.46-1.68-3.46,0,0,2.1-3.49,1.63-4.3-.47-.81-8.26,1.63-8.26,1.63,0,0-7.21-2.18-7.84-1.1Z"/>
              <path class="cls-15" d="M81.34,192.89s1.21-2.56,2.52-1.8c1.31.76,5.56,4.67,5.35,6.55-.21,1.88-3.93,2.92-3.93,2.92,0,0,1.72.41,2.7,1.22.97.81,1.65,5.87.87,6.16s-4.41.93-5.04.29c-.63-.64-.73-8.43-1.1-9.59-.37-1.16-1.62-5.29-1.36-5.75Z"/>
              <path class="cls-15" d="M153.46,111.26s-2.28-1.59-3.06-4.28c-.77-2.68-1.3-5.2-1.3-5.2,0,0-5.16-3.36-5.38-6.54-.22-3.19-.91-6.83,2.58-4.48,3.48,2.35,2.8,3.13,2.8,3.13,0,0,4.87,4.11,5.81,6.54.93,2.43,0,5.29,0,5.29,0,0,6.01,1.85,7.52,4.7,1.51,2.85.08,6.38-3.11,5.29-3.18-1.09-5.87-4.45-5.87-4.45Z"/>
              <path class="cls-15" d="M168.87,110s2.05-3.93.76-7.76-7.42-6.93-7.42-6.93c0,0-.48-5.29-1.68-5.71-1.2-.42-.85,7.13,0,7.8s3.52,1.43,3.52,1.43l2.41,5.2s-1.51,7.72-.61,8.31c.91.59,3.03-2.35,3.03-2.35Z"/>
              <path class="cls-15" d="M142.92,60.72s-1.87,3.61-1.11,5.87c.77,2.27,2.73,5.29,2.73,5.29,0,0-2.13,7.55-.84,8.56,1.29,1.01,3.4-6.29,2.99-8.64-.41-2.35,0-4.45,0-4.45,0,0,1.45-3.44.78-5.71-.66-2.27-.75-3.69-2.03-3.36-1.28.34-2.53,2.43-2.53,2.43Z"/>
              <path class="cls-15" d="M145.46,41.92c-.52.34-2.72,3.44-2.53,5.62.19,2.18-1.33,3.36.79,3.27,2.12-.08,4.4-2.37,4.24-3.87-.15-1.5-.7-7.12-1.26-6.79-.56.34-1.25,1.76-1.25,1.76Z"/>
              <path class="cls-15" d="M157.81,32.02c-.15.34-4.53,5.23-4.31,7.23.22,2,3.35,4.54,3.87,4.24s2.78-1.59,2.86-3.34c.08-1.75-.05-7.96-.32-8.12-.27-.17-2.09,0-2.09,0Z"/>
              <path class="cls-15" d="M154.51,51.23s-1.98,3.61-1.23,5.62c.75,2.01,2.65,5.45,2.65,5.45,0,0-1.57,8.64-1.02,8.98.55.34,1.96-8.89,1.96-8.89,0,0,2.76-8.14,1.77-9.82-.98-1.68-3.2-3.52-4.14-1.34Z"/>
            </g>
          </g>
        </g>
      </g>
    </g>
  </g>
</svg>