<?xml version="1.0" encoding="UTF-8"?>
<svg id="Layer_2" data-name="Layer 2" xmlns="http://www.w3.org/2000/svg" viewBox="0 0 162.93 207.39">
  <defs>
    <style>
      .cls-1 {
        fill: #ababab;
        stroke-width: 1.5px;
      }

      .cls-1, .cls-2 {
        stroke: #1d1d1d;
        stroke-miterlimit: 10;
      }

      .cls-3 {
        fill: #4d4d4d;
        opacity: .31;
      }

      .cls-4 {
        fill: #bcbcbc;
      }

      .cls-5 {
        fill: #dfdfdf;
      }

      .cls-2 {
        fill: gray;
      }

      .cls-6 {
        fill: #555;
      }

      .cls-7 {
        fill: #919191;
      }
    </style>
  </defs>
  <g id="Layer_1-2" data-name="Layer 1">
    <g>
      <path class="cls-1" d="M31.48,3.3c-.05,0-.08.36-.08.49.07,3.21,1.13,39.72,18.25,54.95,25.53,22.71,42.38,8.21,50.03,19.66,7.64,11.45,4.17,40.27-13.37,54.96-17.54,14.69-33.25,7.59-42.81,2.05-9.55-5.53-19.88-9.95-31.36-3.2-13.38,7.86-14.61,29.15-5.56,45.99,7.78,14.48,20.49,19.85,38.56,20.99,18.06,1.14,33.18,0,47.08,7.25l10.48-11.29s-8.48-7.52-31.37-8.72c-24.55-1.28-45.73-1.59-51.64-20.45-4.66-14.86,3.92-21.57,11.39-18.51s18.06,20.42,54.19,21.57c36.13,1.15,67.74-25.31,74.26-55.92,6.34-29.77,3.53-69.19-32.57-73.86-28.92-3.74-35.65,24.31-61.66,11.07C48.79,41.95,48.58,7.16,48.54,3.84c0-.15.05-.54-.09-.54h-16.98Z"/>
      <path class="cls-2" d="M48.7,3.3c0,1.55-3.9,2.8-8.72,2.8s-8.72-1.25-8.72-2.8,3.9-2.8,8.72-2.8,8.72,1.25,8.72,2.8Z"/>
      <path class="cls-6" d="M45.89,3.3c0,.71-2.67,1.28-5.96,1.28s-5.96-.57-5.96-1.28,2.67-1.28,5.96-1.28,5.96.57,5.96,1.28Z"/>
      <path class="cls-7" d="M90.59,54.62c-.39-.03-.53.55-.18.74,1.41.77,3.35,2.04,4.15,3.49.76,1.38,1.1,4.91,1.26,7.66.03.47.65.5.71.03.41-3.04.76-7.17.01-9.07-.83-2.11-3.94-2.7-5.96-2.86Z"/>
      <path class="cls-4" d="M98.29,50.47s12.77-10.44,28.83-8.1c16.06,2.34,28.81,14.47,31.16,37.32,2.35,22.85-3.23,45.71-12.34,50.8-6.78,3.78-10.46-14.35-12.29-24.54-.57-3.19-2.49-5.85-5.13-7.31-2.08-1.14-4.55-3.23-6.52-7.04-2.29-4.42-3.41-13.82-3.96-21.46-.47-6.55-4.91-11.91-10.79-13.1-6.93-1.4-13.97-3.66-8.95-6.58Z"/>
      <path class="cls-4" d="M34.93,12.19c2.2,9.72,8.2,32.63,17.92,43.8.29.34-.11.84-.45.56-3.47-2.86-8.82-8.56-12.47-18.51-3.81-10.38-5.18-20.19-5.68-25.72-.04-.47.57-.59.68-.13Z"/>
      <path class="cls-7" d="M41.9,151.5c-.8-.55-.18-1.9.71-1.53,2.36.99,4.92,1.94,6.46,2.15,5.04.69,6.75-1.04,10.36-.12,3.61.92,5.51,5.22,9.08,5.32s6.31-4.05,10.61-3.24c4.31.81,6.73,4.96,11.14,4.39,4.41-.58,7.25-6.7,11.56-7.16,4.31-.46,7.15,3.29,11.45,1.7,4.31-1.58,6.73-9.9,9.35-11.28,2.63-1.39,6.52,1.04,9.25,0,2.73-1.04,7.88-6,9.77-4.27,1.89,1.73-5.68,13.58-25.12,22.28-19.44,8.7-40.88,6-50.97,3.35-7.32-1.93-17.57-7.37-23.67-11.59Z"/>
      <path class="cls-7" d="M4.57,146.64c.18-.69,1.08-.6,1.09.11.1,8.06,1.63,23.51,11.1,33.08,13.27,13.42,33.43,10.03,50.64,12.6,10.9,1.63,17.11,5.36,20.2,7.88.51.42.08,1.3-.52,1.05-3.33-1.39-9.32-3.37-17.55-4.03-13.17-1.05-41.06,2.8-54.26-12.02-10.64-11.94-14.27-25.06-10.69-38.68Z"/>
      <path class="cls-7" d="M6.12,141.44c.05-.2.14-.38.26-.54,1.11-1.5,7.17-9.19,15.65-9.93,4.95-.43,9.96,1.36,13.6,3.16,1.39.68.86,2.97-.66,2.84-.52-.04-.92-.08-1.1-.12-.52-.09-1.76,1.08-2.7,2.05-.59.61-1.52.51-2.01-.21-.66-.96-1.65-2.01-2.74-1.85-1.12.16-2.1,1.83-2.74,3.23-.41.89-1.48,1.11-2.14.42-1.11-1.15-2.65-2.46-3.72-2.17-.91.25-1.08,1.78-1.02,3.25.04,1.16-1.12,1.9-2.03,1.32-1.37-.87-2.91-1.73-3.37-1.54-.18.07-.32.36-.43.76-.31,1.1-1.51,1.45-2.27.66-.07-.07-.13-.12-.2-.15-.89-.45-2.85.67-2.85.67l.47-1.87Z"/>
      <g>
        <path class="cls-5" d="M120.42,41.77s6.73-.93,14.04,1.94c7.31,2.87,10.83,6.22,10.69,6.95-.15.73-6.57-4.37-12.72-6.26-6.16-1.89-11.22-1.72-14.4-1.43-3.18.29-.26-1.05,2.4-1.2Z"/>
        <ellipse class="cls-5" cx="146.8" cy="52.57" rx="1" ry="1.1"/>
        <ellipse class="cls-5" cx="149.09" cy="54.74" rx=".62" ry=".68"/>
        <path class="cls-5" d="M151.08,56.64c0,.32-.23.58-.52.58s-.52-.26-.52-.58.23-.58.52-.58.52.26.52.58Z"/>
      </g>
      <path class="cls-3" d="M21.23,190.29s-4.61-3.07-7.18-6.37-1.78-6.6-.56-6.49c1.23.1,4.64,2.51,4.64,2.51,0,0-2.43-3.76-1.35-3.59,1.09.17,6.16,3.59,6.16,3.59,0,0-2.14-4.04-.56-3.59,1.59.45,6.34,8.29,19.13,10.46s23.28,1.13,32.3,1.98c9.03.85,17.75,3.96,19.06,5.47,1.31,1.51-2.11,6.97-3.32,6.93-1.21-.04-12.56-2.87-20.89-3.91-8.34-1.04-32.75,3.18-47.45-7.01Z"/>
    </g>
  </g>
</svg>