<?xml version="1.0" encoding="UTF-8"?>
<svg id="Layer_2" data-name="Layer 2" xmlns="http://www.w3.org/2000/svg" viewBox="0 0 107.16 112.9">
  <defs>
    <style>
      .cls-1 {
        fill: #232a3f;
      }

      .cls-2 {
        fill: #eee;
      }

      .cls-3 {
        fill: #4162a2;
      }
    </style>
  </defs>
  <g id="Layer_1-2" data-name="Layer 1">
    <g>
      <path class="cls-1" d="M86.08,102.59c-14,10.45-45.97,18.78-70.87-5.39C-7.31,75.34-4.23,36.77,20.51,17.94c17.89-13.62,44.59-14.21,63.07-1.41,18.48,12.8,27.3,38.02,20.83,59.55-3.45,11.48-10.05,20.32-18.33,26.51Z"/>
      <path class="cls-3" d="M86.72,95.27c-21.53,16.07-51.77,13.15-70.87-5.39C-6.67,68.02-3.58,29.45,21.15,10.62c17.89-13.62,44.59-14.21,63.07-1.41,18.48,12.8,27.3,38.02,20.83,59.55-3.45,11.48-10.05,20.32-18.33,26.51Z"/>
      <path class="cls-2" d="M61.94,67.07c.42-14.1.83-28.2,1.25-42.29.04-1.36.05-2.85-.68-3.92-.64-.95-1.71-1.37-2.73-1.74-3.18-1.17-6.73-2.35-10.14-1.81-5.15.83-4.93,4.02-5.45,9.09-.78,7.52-1.79,15.36-1.15,23.03.33,3.97,1.29,8.46,3.02,12.21,1.39,3.03,3.08,5.72,3.84,9.1.49,2.18.55,2.03,3.03,2.38,1.55.22,2.97.32,4.55.16,1.19-.12,2.47-.33,3.32-1.29.96-1.08,1.06-2.76,1.11-4.27,0-.22.01-.44.02-.66Z"/>
      <path class="cls-2" d="M59.67,79.07c2.13.14,3.73,2.02,3.51,4.15-.08.76-.16,1.52-.23,2.28-.11,1.08-.26,2.25-1.03,3.03-.68.68-1.68.9-2.62,1.08-2.97.58-6.27,1.13-9.25.34-4.52-1.21-3.97-3.71-3.89-7.77,0-.01,0-.03,0-.04.04-2.14,1.87-3.8,4.01-3.67l9.51.61Z"/>
    </g>
  </g>
</svg>